<svg xmlns="http://www.w3.org/2000/svg" viewBox="0 0 398.12 241.95"><defs><style>.cls-1{fill:none;stroke:#090808;stroke-miterlimit:10;}</style></defs><title>Fichier 1</title><g id="Calque_2" data-name="Calque 2"><g id="Calque_1-2" data-name="Calque 1"><path class="cls-1" d="M16.39,28.47a6.44,6.44,0,0,0-1.91-3.16,6.63,6.63,0,0,0-3.21-1.93,5.15,5.15,0,0,0-3.18.5,10.76,10.76,0,0,0-2.9,1.78,3.89,3.89,0,0,0-.76,1.57,8.43,8.43,0,0,0,0,2.13v.11a7.2,7.2,0,0,0,.81,2.69,5.41,5.41,0,0,0,4.29,2.28,6.52,6.52,0,0,0,6.12-2.77A4.58,4.58,0,0,0,16.39,28.47Z"/><path class="cls-1" d="M20.52,22.59c-.07-3-3.18-5.18-5.85-5.83a8.67,8.67,0,0,0-4.32.2,12.66,12.66,0,0,0-3.5,1.51c-.19.24-.36.5-.55.74-.77,1-1.52,2-2.24,3.06a13.5,13.5,0,0,1,2.16-1.14,11.11,11.11,0,0,1,6-.92,10.48,10.48,0,0,1,5,2.38,10.68,10.68,0,0,1,2.95,4.08c.11-1.25.25-2.48.43-3.72A.5.5,0,0,1,20.52,22.59ZM22.27,5.28a2.37,2.37,0,0,0-2.15.23,4.28,4.28,0,0,1,2.46,1.16c.11.12.23.24.33.36C23.35,6.57,22.76,5.47,22.27,5.28Z"/><path class="cls-1" d="M18.94,26.39A9.32,9.32,0,0,0,10,21.22a12,12,0,0,0-6,2.39,7.68,7.68,0,0,0-1.82,2,8.85,8.85,0,0,0-.5,1.83,9.94,9.94,0,0,0-.13,1.08c0,.08,0,.24,0,.38h0a.47.47,0,0,0,0,.22.54.54,0,0,1,0,.75,7.43,7.43,0,0,0,1.58,3.22,8.7,8.7,0,0,0,5.41,3.6,12.41,12.41,0,0,0,6.91-1.21,7.32,7.32,0,0,0,3.89-4.19A6.63,6.63,0,0,0,18.94,26.39Zm-1.77,4.67a7.26,7.26,0,0,1-5.11,4.3,7.91,7.91,0,0,1-6.78-1.45A6.7,6.7,0,0,1,3.43,29.7a.62.62,0,0,1-.08-.24c0-.11,0-.22,0-.33s0-.19-.05-.28v-.31a4.49,4.49,0,0,1,.12-1.68c.09-.26.18-.53.29-.77s.21-.52.32-.79A4,4,0,0,1,4.37,25a.9.9,0,0,1,.15-.19.56.56,0,0,1,.25-.17,12.29,12.29,0,0,1,3.06-1.78,5.72,5.72,0,0,1,3.77-.46,8,8,0,0,1,3.7,2.26,8,8,0,0,1,2,3.1A5.13,5.13,0,0,1,17.17,31.06Z"/><path class="cls-1" d="M38.55,18.94a.56.56,0,0,1-.43-.72A6.31,6.31,0,0,0,35,16.74a12.43,12.43,0,0,0-4.59,0,8.14,8.14,0,0,0-3.37,1.21,5.29,5.29,0,0,0-1.9,1.83c-.09.63-.2,1.26-.28,1.89s-.15,1-.22,1.55a11.67,11.67,0,0,1,3.15-2.84,8.62,8.62,0,0,1,6.49-.76,14.2,14.2,0,0,1,5.51,2.7C39.38,21.17,39,20.06,38.55,18.94ZM28.08,5a1.31,1.31,0,0,0-.89.74,2.88,2.88,0,0,0-.1.51,4.66,4.66,0,0,1,2.3-1.33A2.09,2.09,0,0,0,28.08,5Z"/><path class="cls-1" d="M36.16,11.64c-.8-2.05-2-4.21-4-5.27a3.5,3.5,0,0,0-3.1-.29A4.53,4.53,0,0,0,27,8.21,11.29,11.29,0,0,0,26.07,12c-.2,1.61-.33,3.22-.52,4.83q0,.48-.12,1a8.5,8.5,0,0,1,.89-.66,9.49,9.49,0,0,1,3.84-1.44,12.33,12.33,0,0,1,5.34.12,10.43,10.43,0,0,1,2.25.88C37.24,15,36.79,13.27,36.16,11.64ZM22.43,8.18C21.27,6.33,19,6.25,17.07,6.94a11.69,11.69,0,0,0-5.4,4.68c-1.14,1.63-2.26,3.27-3.41,4.89a13,13,0,0,1,2.19-.69,9.09,9.09,0,0,1,4.88,0,11.16,11.16,0,0,1,4.51,2.71,3.18,3.18,0,0,1,.66-2.27,3.82,3.82,0,0,1,2.17-1.48l0-.08s0,0,0,0c.15-.62.28-1.24.37-1.88A6.85,6.85,0,0,0,22.43,8.18Z"/><path class="cls-1" d="M39.05,28.66c-.27-2.34-2.24-4.06-4.36-4.81a6.28,6.28,0,0,0-5.81.68A14.64,14.64,0,0,0,27.17,26a.53.53,0,0,1-.18.24,3.74,3.74,0,0,0-1,2.63,8.14,8.14,0,0,0-.08,1.1,2.32,2.32,0,0,0,.05.57.21.21,0,0,0,.15,0l.06.2a.53.53,0,0,1,.12.29,5,5,0,0,0,2.43,2.49A7.21,7.21,0,0,0,32,34a11.17,11.17,0,0,0,3.39-.53C37.46,32.77,39.34,31.07,39.05,28.66Z"/><path class="cls-1" d="M42.11,28.12a7.47,7.47,0,0,0-.48-1.63,2.86,2.86,0,0,0-.87-1.58s0,0,0,0a8.85,8.85,0,0,0-2.11-2.12,12.16,12.16,0,0,0-6.7-2.43,7.52,7.52,0,0,0-5.54,2.48A12.77,12.77,0,0,0,24.64,25v.1c-.06.46-.15.91-.2,1.37s-.11,1-.14,1.54a5.34,5.34,0,0,0,0,1.44.56.56,0,0,1,0,.22c.07.66.13,1.31.22,2a6,6,0,0,0,.76,2.47,3.9,3.9,0,0,0,2.32,1.57,19.4,19.4,0,0,0,6.57.64c2.09-.18,4.44-.71,6-2.22A6.51,6.51,0,0,0,42.11,28.12Zm-2.37,3c-1,2.21-3.33,3.36-5.61,3.75s-4.89.35-6.82-1a6.1,6.1,0,0,1-2-2.5,2.14,2.14,0,0,1-.45-1.78,5.48,5.48,0,0,1,.12-1.66.58.58,0,0,1,.08-.18c-.17-.94.7-1.88,1.34-2.49A15.58,15.58,0,0,1,29,23.16c3-1.83,7.36-.51,9.58,2A5.75,5.75,0,0,1,39.74,31.16Z"/><path class="cls-1" d="M24,19.93a.21.21,0,0,0-.14-.12,2.63,2.63,0,0,0-1.64.33c-.36.17-1,.49-.94,1s.66.41,1,.35.6-.18.91-.23a.91.91,0,0,0,.37-.18.58.58,0,0,0,.21-.07.71.71,0,0,0,.13-.12h0v0h0a2.54,2.54,0,0,0,.23-.67A.19.19,0,0,0,24,19.93Zm.59-4.23h0a.22.22,0,0,0-.24-.11l-.35.05a4.08,4.08,0,0,0-2.32.72,1.73,1.73,0,0,0-.61,1,2.31,2.31,0,0,0-.18,1.07c-.07.41-.11.93.27,1.15,0,0,0,0,0,0h0l.1.05c.28.1.63-.09.87-.2A7.1,7.1,0,0,1,23.33,19c.27,0,.56,0,.8,0,.15-1,.29-2,.4-2.95a.19.19,0,0,0,0-.14A.2.2,0,0,0,24.59,15.7Z"/><path class="cls-1" d="M41.74,24.4c-.73-2.06-1.55-4.09-2.28-6.15a.49.49,0,0,0-.08-.22c-.18-.5-.34-1-.5-1.49A57,57,0,0,0,36.6,9.91,9.17,9.17,0,0,0,32,5.08a4.42,4.42,0,0,0-1.14-.28c-.47-1.15-1.94-1.2-3-.89A2.47,2.47,0,0,0,26.33,5a4.14,4.14,0,0,0-.31,2,.45.45,0,0,0,.19.39,8.88,8.88,0,0,0-1,3c-.22,1.37-.36,2.77-.5,4.17a3,3,0,0,0-.75.18l-.26.09c.14-.56.25-1.14.34-1.72a8.37,8.37,0,0,0-.53-5.21c1-.82.67-2.5-.27-3.33a3.09,3.09,0,0,0-2.35-.49,3.06,3.06,0,0,0-2.11,1.23.4.4,0,0,0-.08.16,7.56,7.56,0,0,0-1.87.37,10.34,10.34,0,0,0-4.39,3,22,22,0,0,0-2.07,2.73c-.69,1-1.4,2-2.1,3s-1.2,1.67-1.8,2.51a14.06,14.06,0,0,1-1.13,1.54l-1.5,2c-.71,1-1.4,2-2,3-.24.38-.47.76-.66,1.13a.17.17,0,0,1,0,.12,11.93,11.93,0,0,0-.48,2.22l0,.2A4.7,4.7,0,0,0,.58,29.3c0,.24,0,.48,0,.73a9.89,9.89,0,0,0,2.91,5,12,12,0,0,0,2.67,2,7.27,7.27,0,0,0,3.11.79c4.16.23,9.34-1.57,11-5.7a6.4,6.4,0,0,0,.48-2,.55.55,0,0,0,.32-.48,65.13,65.13,0,0,1,.8-7.63,3.49,3.49,0,0,0,1.83-.14l-.39,2.75a.19.19,0,0,1,0,.08.13.13,0,0,0,0,.06c0,.3-.08.6-.13.9l-.05.12c0,1,0,2.11-.09,3.16l.1.07A22.91,22.91,0,0,0,24,33.8a4.56,4.56,0,0,0,1.58,2.12,8,8,0,0,0,3,1.13,19.51,19.51,0,0,0,6.73.27,10.19,10.19,0,0,0,5.85-2.57C44,31.93,43.83,27.55,41.74,24.4ZM27.2,5.69A1.24,1.24,0,0,1,28.09,5a2.11,2.11,0,0,1,1.32-.08,4.67,4.67,0,0,0-2.3,1.34A2.27,2.27,0,0,1,27.2,5.69Zm-1.64,11.1c.19-1.6.32-3.22.52-4.83A11,11,0,0,1,27,8.21a4.48,4.48,0,0,1,2.06-2.13,3.51,3.51,0,0,1,3.1.29c2,1.06,3.2,3.22,4,5.27.62,1.63,1.08,3.33,1.61,5a10.64,10.64,0,0,0-2.25-.88,12.49,12.49,0,0,0-5.34-.12,9.49,9.49,0,0,0-3.84,1.44,8.88,8.88,0,0,0-.89.66C25.48,17.43,25.53,17.11,25.56,16.79Zm-.7,4.85c.08-.63.19-1.26.28-1.89A5.29,5.29,0,0,1,27,17.92a8,8,0,0,1,3.37-1.21,12.21,12.21,0,0,1,4.59.05,6.42,6.42,0,0,1,3.11,1.47.57.57,0,0,0,.43.73c.4,1.11.83,2.23,1.25,3.33a14.18,14.18,0,0,0-5.51-2.69,8.62,8.62,0,0,0-6.49.76,11.67,11.67,0,0,0-3.15,2.84C24.71,22.67,24.79,22.15,24.86,21.64ZM22.27,5.28c.48.19,1.08,1.29.64,1.74a3.61,3.61,0,0,0-.33-.35A4.29,4.29,0,0,0,20.12,5.5,2.43,2.43,0,0,1,22.27,5.28Zm-2.8,26a7.29,7.29,0,0,1-3.89,4.19,12.49,12.49,0,0,1-6.91,1.21,8.7,8.7,0,0,1-5.41-3.6,7.43,7.43,0,0,1-1.58-3.22.54.54,0,0,0,0-.75.37.37,0,0,1,0-.22h0c0-.14,0-.3,0-.38a8,8,0,0,1,.13-1.08,8.27,8.27,0,0,1,.5-1.83,8,8,0,0,1,1.82-2,12,12,0,0,1,6-2.39A9.34,9.34,0,0,1,19,26.39,6.73,6.73,0,0,1,19.47,31.27Zm.77-4.6a10.68,10.68,0,0,0-2.95-4.08,10.43,10.43,0,0,0-5-2.38,11.1,11.1,0,0,0-6,.92,12,12,0,0,0-2.16,1.14c.72-1,1.47-2.06,2.23-3.06.19-.24.36-.49.55-.74A12.53,12.53,0,0,1,10.34,17a8.56,8.56,0,0,1,4.32-.2c2.67.64,5.78,2.82,5.85,5.83a.47.47,0,0,0,.16.36C20.49,24.19,20.35,25.42,20.24,26.67Zm.26-10.4a3.22,3.22,0,0,0-.66,2.27,11.05,11.05,0,0,0-4.51-2.71,9.19,9.19,0,0,0-4.88,0,13.63,13.63,0,0,0-2.19.7c1.15-1.62,2.27-3.26,3.41-4.9A11.66,11.66,0,0,1,17.07,7c1.88-.68,4.2-.61,5.36,1.24A6.86,6.86,0,0,1,23,12.78c-.09.64-.21,1.26-.36,1.88,0,0,0,0,0,.05l0,.08A3.8,3.8,0,0,0,20.5,16.27Zm3.61,3.9a2.22,2.22,0,0,1-.23.67h0v0h0a.74.74,0,0,1-.13.12.65.65,0,0,1-.21.07.91.91,0,0,1-.37.18c-.31.05-.6.17-.91.23s-.92.08-1-.35.57-.79.94-1a2.69,2.69,0,0,1,1.64-.33.21.21,0,0,1,.14.12A.19.19,0,0,1,24.11,20.17ZM23.35,19a7.1,7.1,0,0,0-1.17.42c-.24.11-.59.3-.87.2l-.11-.05h0v0c-.38-.23-.34-.74-.27-1.15a2.18,2.18,0,0,1,.18-1.07,1.66,1.66,0,0,1,.61-1A4.08,4.08,0,0,1,24,15.64l.35-.05a.25.25,0,0,1,.24.1h0a.24.24,0,0,1,0,.26.25.25,0,0,1,0,.14c-.11,1-.25,2-.4,2.95C23.89,19,23.62,19,23.35,19ZM40.22,34.12c-1.55,1.51-3.91,2-6,2.22a19.46,19.46,0,0,1-6.58-.64,3.84,3.84,0,0,1-2.31-1.58,5.75,5.75,0,0,1-.76-2.46c-.09-.66-.15-1.31-.23-2a.55.55,0,0,0,0-.22,5.78,5.78,0,0,1,0-1.44c0-.51.08-1,.14-1.54s.14-.92.19-1.37a.46.46,0,0,0,0-.1,12.77,12.77,0,0,1,1.76-2.19A7.48,7.48,0,0,1,32,20.35a12.11,12.11,0,0,1,6.7,2.43,9,9,0,0,1,2.11,2.12s0,0,0,0a2.86,2.86,0,0,1,.87,1.58,7.55,7.55,0,0,1,.48,1.62A6.69,6.69,0,0,1,40.22,34.12Z"/><path class="cls-1" d="M17.31,27.7a8,8,0,0,0-2-3.1,8,8,0,0,0-3.7-2.26,5.78,5.78,0,0,0-3.77.46,12.16,12.16,0,0,0-3.06,1.78.51.51,0,0,0-.25.17,1.25,1.25,0,0,0-.15.19,4,4,0,0,0-.36.35c-.11.27-.23.53-.32.79a6.43,6.43,0,0,0-.29.77,4.49,4.49,0,0,0-.12,1.68v.31c0,.09,0,.18,0,.28s0,.21,0,.33a.49.49,0,0,0,.08.24A6.7,6.7,0,0,0,5.29,33.9a7.91,7.91,0,0,0,6.78,1.45,7.23,7.23,0,0,0,5.11-4.3A5.26,5.26,0,0,0,17.31,27.7Zm-1.67,4a6.51,6.51,0,0,1-6.12,2.77,5.4,5.4,0,0,1-4.29-2.28,7.2,7.2,0,0,1-.81-2.69.2.2,0,0,0,0-.11,8.93,8.93,0,0,1,0-2.13,4,4,0,0,1,.76-1.57,11.19,11.19,0,0,1,2.9-1.78,5.15,5.15,0,0,1,3.18-.5,6.58,6.58,0,0,1,3.21,1.93,6.49,6.49,0,0,1,1.91,3.16A4.39,4.39,0,0,1,15.64,31.67Zm22.91-6.55c-2.21-2.47-6.57-3.79-9.57-2a15.66,15.66,0,0,0-2.64,2.09c-.64.61-1.51,1.55-1.34,2.49a.48.48,0,0,0-.07.18,5.21,5.21,0,0,0-.13,1.66,2.17,2.17,0,0,0,.45,1.78,6.18,6.18,0,0,0,2,2.5c1.93,1.4,4.56,1.45,6.82,1s4.63-1.54,5.61-3.75A5.66,5.66,0,0,0,38.55,25.12ZM35.36,33.5A11.17,11.17,0,0,1,32,34a7.38,7.38,0,0,1-3.25-.57A5,5,0,0,1,26.29,31a.47.47,0,0,0-.12-.29,1.17,1.17,0,0,1-.06-.2.26.26,0,0,1-.15,0,2.32,2.32,0,0,1-.05-.57,8.14,8.14,0,0,1,.08-1.1,3.74,3.74,0,0,1,1-2.63.56.56,0,0,0,.18-.24,13.71,13.71,0,0,1,1.71-1.42,6.22,6.22,0,0,1,5.81-.68,6.21,6.21,0,0,1,4.36,4.81C39.34,31.07,37.46,32.77,35.36,33.5Z"/><path class="cls-1" d="M126.37,19.66c-.05-1.6-.1-3.21-.16-4.82a2.74,2.74,0,0,0-.41-1.67,2.8,2.8,0,0,0-2.21-.76c-7.7-.31-15.42,0-23.12.35l-3.7.15c-2.55.11-4.08-.16-6.59.32-1.37.26-1.31,2.37-1.3,3.76s0,2.59,0,3.89a1.76,1.76,0,0,0,.11.76,1.72,1.72,0,0,0,1.48.69c.46.05.93.08,1.39.11.12,4.9,0,11.57-.07,15.91,0,2.26-.09,4.53-.14,6.79a3.75,3.75,0,0,0,.18,1.53c.57,1.4,2.44,1.59,4,1.56,7.59-.14,17.18-.29,24.78-.44a3.11,3.11,0,0,0,1.71-.36,3.16,3.16,0,0,0,1-2.58,162.72,162.72,0,0,0-.24-22.25,5.1,5.1,0,0,0,1.17-.05,2.56,2.56,0,0,0,2-1.46A3.81,3.81,0,0,0,126.37,19.66ZM114,29.72a5.92,5.92,0,0,1-3.81.94,47,47,0,0,1-7.5-.26c-.6-.08-1.3-.26-1.55-.81a1.18,1.18,0,0,1,0-.92c.37-1,1.63-1.39,2.72-1.56,2.53-.37,5.16-.85,7.65-.28,1.24.28,1.3.63,2.4,1.28a1.18,1.18,0,0,1,.55.53A1,1,0,0,1,114,29.72Z"/><path class="cls-1" d="M114.13,27.68c-.34-.21-.58-.38-.78-.53a4.13,4.13,0,0,0-1.76-.81,19.34,19.34,0,0,0-7.23.19l-.6.09c-.64.09-2.58.38-3.12,1.88a1.72,1.72,0,0,0,0,1.3,2.41,2.41,0,0,0,1.94,1.1,37.28,37.28,0,0,0,5.05.29c.85,0,1.7,0,2.53,0a6.28,6.28,0,0,0,4.12-1.06,1.5,1.5,0,0,0,.6-1.64A1.62,1.62,0,0,0,114.13,27.68Zm-.47,1.65a5.51,5.51,0,0,1-3.5.83,47.25,47.25,0,0,1-7.42-.25c-.67-.1-1-.27-1.17-.53a.72.72,0,0,1,0-.54c.23-.63,1-1,2.33-1.23l.6-.09a29.33,29.33,0,0,1,4.45-.46,10.78,10.78,0,0,1,2.41.25,3.11,3.11,0,0,1,1.39.65c.22.16.48.35.86.58.09.05.3.17.34.28S113.87,29.16,113.66,29.33Z"/><path class="cls-1" d="M126.87,19.64l-.16-4.82a3.28,3.28,0,0,0-.51-2,3.3,3.3,0,0,0-2.59-.95c-7.73-.31-15.58,0-23.16.34l-3.7.16c-.86,0-1.6,0-2.31,0a20.7,20.7,0,0,0-4.35.3c-1.73.33-1.72,2.61-1.72,4.11l0,4a2.24,2.24,0,0,0,.16,1,2.24,2.24,0,0,0,1.88,1l.89.08c.19,4.78.09,10.46,0,15.43l-.14,6.78a4.12,4.12,0,0,0,.21,1.74c.71,1.73,2.95,1.88,4.07,1.88h.37l12.56-.22,12.21-.22a3.73,3.73,0,0,0,2-.44c1.09-.72,1.19-2.24,1.24-3a135.08,135.08,0,0,0-.38-21.77h0a5.3,5.3,0,0,0,.88-.07,3,3,0,0,0,2.38-1.78A4,4,0,0,0,126.87,19.64Zm-4.06,25.17A2.8,2.8,0,0,1,122,47a2.72,2.72,0,0,1-1.46.28l-12.2.22-12.57.22c-2,.05-3.13-.37-3.49-1.25a3.26,3.26,0,0,1-.14-1.34l.14-6.78c.11-4.94.2-10.58,0-15.38a114.32,114.32,0,0,0,13-.19,88.67,88.67,0,0,1,16.29.15l.19,0,.64.09A133.78,133.78,0,0,1,122.81,44.81Zm3-23.9a2.09,2.09,0,0,1-1.62,1.15,4.77,4.77,0,0,1-1.07,0h0c-.37,0-.76-.08-1.16-.13l-.19,0a58.35,58.35,0,0,0-7.71-.46h-.52c-2.77,0-5.53.15-8.24.29-2.41.13-4.87.26-7.32.29-1.9,0-3.81,0-5.7-.11-.57,0-1.14-.08-1.7-.14-.4,0-.93-.12-1.08-.41a1.52,1.52,0,0,1-.06-.55l0-4c0-1.18,0-2.95.9-3.13a19.78,19.78,0,0,1,4.16-.28c.72,0,1.48,0,2.36,0l3.7-.16c7.57-.32,15.39-.65,23.08-.34a2.43,2.43,0,0,1,1.84.56,2.48,2.48,0,0,1,.3,1.39l.16,4.82A3.31,3.31,0,0,1,125.77,20.91Z"/><path class="cls-1" d="M60.13,224a15.06,15.06,0,0,0-1.78,0c0,.68.09,1.36.12,2,.49,0,1,0,1.48-.08a.42.42,0,0,1,.36.13C60.27,225.38,60.22,224.7,60.13,224Zm.34,4.87c0-.73-.07-1.46-.12-2.2a.45.45,0,0,1-.33.18L58.5,227a4.33,4.33,0,0,1-.33,2C58.94,228.93,59.7,228.9,60.47,228.89Zm-2.93-2.84c0-.67-.1-1.36-.13-2a4.51,4.51,0,0,0-2,.34v1.71C56.1,226.07,56.82,226.07,57.54,226.05Zm-6.47-11.13a2.14,2.14,0,0,0-2.48-1.17,2.71,2.71,0,0,0-2.2,2.19.53.53,0,0,1-.12.25,2.09,2.09,0,0,0,.59,1.56,3,3,0,0,0,2.32.42,2.37,2.37,0,0,0,1.8-1.24A2.64,2.64,0,0,0,51.07,214.92Zm-9.15,13.62c0,.35,0,.71-.06,1.05a2,2,0,0,1-.08.41c.56.07,1.69.21,1.93-.28A3.53,3.53,0,0,0,44,228.2,4.55,4.55,0,0,1,41.92,228.54Zm1.85-3.64h-.05a8.19,8.19,0,0,0-1,0c-.24,0-.47.11-.71.11h-.13v.05c0,.84,0,1.68,0,2.52a3.1,3.1,0,0,0,1.77-.34.51.51,0,0,1,.22-.09C43.87,226.43,43.77,225.67,43.77,224.9Zm22.29-10.53a14.68,14.68,0,0,1-3.92-3.06,39,39,0,0,0-4.89-3.57A44.5,44.5,0,0,1,52.36,204a15.14,15.14,0,0,0-4.26-3.06l0,0a19,19,0,0,0,.35,3.46.45.45,0,0,1,.33.12c2.55,2.23,5.56,3.84,8.17,6,1.45,1.2,2.86,2.46,4.33,3.65A29.06,29.06,0,0,0,64.67,217a11.84,11.84,0,0,0,.76-1,7.71,7.71,0,0,0,.49-.82c0-.09.09-.19.12-.28h0A.43.43,0,0,1,66.06,214.37ZM41,225.17a.37.37,0,0,1,0-.11h-.21a5.23,5.23,0,0,0-1.26.12c-.2.05-.25.05-.3.29a5.9,5.9,0,0,0,0,2c.61,0,1.23.07,1.84.11v-.08C41,226.73,41,226,41,225.17Zm-1.69,3.25c.06.41.13.82.18,1.22l1.37.23a.43.43,0,0,1,.1-.29s0-.07,0-.11,0-.34,0-.51,0-.29,0-.44C40.42,228.49,39.85,228.44,39.27,228.42Z"/><path class="cls-1" d="M64,217.72v-.07A36,36,0,0,1,60.75,215c-1.46-1.18-2.86-2.43-4.3-3.63-2.52-2.09-5.41-3.68-7.91-5.78a17.68,17.68,0,0,1-1.71,1.95c-.69.71-1.37,1.46-2.09,2.13s-1.5,1.53-2.22,2.33-1.45,1.41-2.1,2.16a17.09,17.09,0,0,1-3.78,3.67.46.46,0,0,1-.16.52c.13-.11.08-.14.07,0a1.2,1.2,0,0,0,0,.27c0,.23,0,.46,0,.68.06.49.13,1,.19,1.46s.06,1.16.09,1.74c0,.79.07,1.59.15,2.38s.15,1.81.21,2.72a.37.37,0,0,1,0,.34c.17,2.32.28,4.64.3,6.95v0h.06l.15,0,.13,0c1.39,0,2.79.14,4.19,0,.69-.07,1.38-.12,2.07-.21.35-.05.68-.09,1-.11.11,0,.81.06.83,0a.42.42,0,0,1,.15-.11c-.08-.55-.16-1.09-.23-1.65a30.27,30.27,0,0,1-.18-4,24.56,24.56,0,0,1,.29-4.11.48.48,0,0,1,.42-.38c.53-.07,1-.11,1.58-.13a10.14,10.14,0,0,0,1.35,0c.59-.08,1.16-.32,1.76-.35,1.77-.09,1.7,2.4,1.73,3.63a17.74,17.74,0,0,0,0,1.93c.06.52.12,1,.17,1.56.13,1.13.24,2.25.33,3.38h.09a14.06,14.06,0,0,0,3.28-.43,9.61,9.61,0,0,1,2.33-.1c.69.05,1.38.09,2.07.08.34,0,1.1,0,1.3-.24a.38.38,0,0,1,.55-.1l.07,0a2.63,2.63,0,0,1,.47-.1,2.58,2.58,0,0,0,.21-1.46,14.17,14.17,0,0,1,.1-1.72c.12-1.41.16-2.8.2-4.21C64.13,223.28,64,220.5,64,217.72ZM44.4,230.38c-.5.73-1.81.63-2.58.55-1-.08-1.91-.3-2.87-.42a.46.46,0,0,1-.38-.42c-.11-.86-.27-1.71-.35-2.59a5.33,5.33,0,0,1,.16-2.54c.36-.78,1.32-.78,2.07-.82.47,0,.94,0,1.42,0a7.32,7.32,0,0,0,.8-.11c.33,0,.65,0,1,0a.48.48,0,0,1,.49.46.43.43,0,0,1,.58.39c0,1,.16,2,.18,3A4.59,4.59,0,0,1,44.4,230.38Zm4.34-11.24a3.48,3.48,0,0,1-2.64-.81,3.54,3.54,0,0,1-.79-2.44.49.49,0,0,1,.21-.41,3.64,3.64,0,0,1,.26-.72,3.74,3.74,0,0,1,3.57-2,2.92,2.92,0,0,1,2.79,2.66A3.36,3.36,0,0,1,48.74,219.14ZM61,229.82c-1.83,0-3.66.14-5.49.14a.47.47,0,0,1-.17,0c-.18.41-.9.41-.9-.12v-3a.5.5,0,0,1,0-.67v-1.71a.47.47,0,0,1,.16-.36.41.41,0,0,1,.19-.49,6.08,6.08,0,0,1,2.8-.55,17,17,0,0,1,3,.06.46.46,0,0,1,.38.42c.26,1.91.29,3.84.42,5.76A.45.45,0,0,1,61,229.82Z"/><path class="cls-1" d="M57.58,227c-.73,0-1.46,0-2.19,0v2h.06c.61,0,1.23,0,1.85,0a.41.41,0,0,1,0-.4A3.26,3.26,0,0,0,57.58,227Z"/><path class="cls-1" d="M36.31,228.55a.38.38,0,0,1-.16-.33A1.82,1.82,0,0,0,35,229c-.34.44-.66,1.14-.18,1.59a.48.48,0,0,1-.4.82,1.68,1.68,0,0,0-1.87,1.19,2.07,2.07,0,0,0,.86,2.21.48.48,0,0,1-.15.8c-.4.11-.73.31-.68.76a2.63,2.63,0,0,0,.61,1.28c.49.6,1.63,1.61,2.46,1.07a.71.71,0,0,1,.19-.08,5.61,5.61,0,0,1,0-2.64,1,1,0,0,1,.65-.76h0l.07-.05C36.58,232.94,36.47,230.75,36.31,228.55Z"/><path class="cls-1" d="M46.28,235.73c0-.06,0-.13,0-.19a7.71,7.71,0,0,1-1.37.05c-.75.08-1.49.24-2.24.27-1.58.06-3.13,0-4.71,0a.45.45,0,0,1-.16,0h0a3.5,3.5,0,0,1-.69.15.62.62,0,0,1-.29.12,1,1,0,0,1-.09.22,2.85,2.85,0,0,0-.06,1c.07.61.21,1.21.26,1.82a1.68,1.68,0,0,0,.32,1.05c2.42,0,4.83-.08,7.25-.16a1.44,1.44,0,0,1,.63-1.24,4.23,4.23,0,0,1,.9-.36.4.4,0,0,1,.05-.37A4,4,0,0,0,46.28,235.73Zm18-1.41a4.08,4.08,0,0,0-.93.11.41.41,0,0,1-.33,0,2.28,2.28,0,0,1-1.52.43,20.43,20.43,0,0,1-2.35-.06,10.19,10.19,0,0,0-2.53.13,13.42,13.42,0,0,1-3.21.38l0,.46a15.12,15.12,0,0,1,.05,1.78,3.17,3.17,0,0,1-.05.53c.69,0,1.39-.08,2.08-.1a1.77,1.77,0,0,1,1.48.37,2.6,2.6,0,0,1,.44,1.55l2.38,0a17.46,17.46,0,0,0,2.7-.22,4.91,4.91,0,0,0,1.87-.65C64.43,237.42,64.32,235.88,64.31,234.32Z"/><path class="cls-1" d="M69.78,236c0-.44-.07-1-.64-.89s-.86-.38-.5-.75a1.83,1.83,0,0,0,.55-2.21c-.38-.61-1.17-.29-1.73-.13a.47.47,0,0,1-.51-.75,2.06,2.06,0,0,0,.06-2.14c-.16-.24-.45-.56-.79-.46s-1,.39-1,.9a.42.42,0,0,1-.44.49l0,.73a14.77,14.77,0,0,1-.14,2.57h.14a.47.47,0,0,1,.5.43c0,1.21.07,2.41.11,3.62,0,.26,0,.53,0,.79a.51.51,0,0,1,.22-.05,5.48,5.48,0,0,0,3.8-1A1.32,1.32,0,0,0,69.78,236Z"/><path class="cls-1" d="M47.59,204.9a18,18,0,0,1-.4-2.91c-.33.29-.68.59-1,.91-1.42,1.58-2.86,3.14-4.28,4.72s-3,3.16-4.41,4.76c-1.14,1.26-2.61,2.21-3.57,3.64.21.21.44.42.66.62a8.15,8.15,0,0,0,1,.65h0l0,0a6.18,6.18,0,0,0,1-.61,46.75,46.75,0,0,0,3.76-3.82c.72-.72,1.39-1.48,2.08-2.23s1.33-1.34,2-2a46.05,46.05,0,0,0,3.23-3.47A.42.42,0,0,1,47.59,204.9Zm8.92,34.58c0-.29-.1-.55-.3-.57A7.43,7.43,0,0,0,55,239c-1.35.08-2.71.14-4.06.23-1.12.08-2.22.1-3.35.13a5.69,5.69,0,0,0-1.54.18c-.39.14-.54.3-.59.6C48,240,50.49,240,53,240c1.09,0,2.18,0,3.28-.05A.42.42,0,0,1,56.51,239.48Zm-3.93-1.65a.42.42,0,0,1,.33-.22C52.69,237.64,52.61,237.72,52.58,237.83Z"/><path class="cls-1" d="M52.36,233.52c-.12-1.32-.25-2.64-.41-4s.2-3-.29-4.36c-.09-.25-.12-.39-.36-.38a6.75,6.75,0,0,0-1.24.23,20.72,20.72,0,0,1-3.16.23,24.71,24.71,0,0,0-.22,4.21,30.21,30.21,0,0,0,.22,3.69,29.27,29.27,0,0,1,.34,2.95,4.65,4.65,0,0,1-.23,2.25c.6,0,1.2,0,1.8,0s1.35-.07,2-.11l1.68-.11a.51.51,0,0,1,.07-.3,0,0,0,0,1,0,0s0-.2,0-.16A35.63,35.63,0,0,0,52.36,233.52ZM48,232.84a.48.48,0,0,1-.65-.12,1.73,1.73,0,0,1-.21-1.07.47.47,0,1,1,.94-.08c0,.14,0,.28,0,.43s0,.09,0,.13v0l0,0A.46.46,0,0,1,48,232.84Z"/><path class="cls-1" d="M70.59,235.14a1.26,1.26,0,0,0-.72-.83,4,4,0,0,0,.39-.87,2.4,2.4,0,0,0-.3-1.79,1.63,1.63,0,0,0-1.85-.72,3,3,0,0,0-.54-2.57,1.65,1.65,0,0,0-1.79-.51,2.24,2.24,0,0,0-.88.48c0-.59,0-1.18.07-1.77.11-2.86,0-5.73,0-8.59l.17-.11a10.8,10.8,0,0,0,1.31-1.77c.28-.44.86-1.31.39-1.81a.4.4,0,0,0-.15-.67c-1.62-.62-2.86-2-4.11-3.19a39.18,39.18,0,0,0-4.93-3.54,45.57,45.57,0,0,1-4.85-3.8A14.22,14.22,0,0,0,48.26,200a.5.5,0,0,0-.51.1.48.48,0,0,0-.56.61h0l0,0a4,4,0,0,1-.28.3,5.37,5.37,0,0,1-.58.49,15,15,0,0,0-1.86,2c-1.39,1.46-2.71,3-4.05,4.48-.64.71-1.3,1.4-2,2.1s-1.33,1.48-2,2.17A19.69,19.69,0,0,0,33,215.78a.42.42,0,0,0,0,.39.46.46,0,0,0,.14.31A8.61,8.61,0,0,0,35,218a2.25,2.25,0,0,0,.5.29h.07a6.58,6.58,0,0,0,.17,1.92c.18,1.34.16,2.69.25,4,.08,1,.15,2,.22,3a2.82,2.82,0,0,0-2.49,3.22,2.52,2.52,0,0,0-2,1.72,2.91,2.91,0,0,0,.59,2.79c-2,1.41,1.34,5.76,3.71,4.57a2.59,2.59,0,0,0,.42,1.24c.43.57,1.15.41,1.78.41,1.53,0,3.06-.06,4.6-.1,5.74-.17,11.5-.19,17.25-.33a10.73,10.73,0,0,0,4.65-.87c.29-.15.67-.38.67-.74V239a.61.61,0,0,0,.27.08c1.71,0,3.76-.19,4.8-1.75A3,3,0,0,0,70.59,235.14ZM48.11,200.92A15.23,15.23,0,0,1,52.37,204a43.57,43.57,0,0,0,4.89,3.77,38,38,0,0,1,4.89,3.57,14.68,14.68,0,0,0,3.92,3.06.41.41,0,0,0,0,.45h0a1.18,1.18,0,0,1-.12.28,7.71,7.71,0,0,1-.49.82c-.23.34-.49.7-.76,1a28.26,28.26,0,0,1-3.41-2.77c-1.47-1.18-2.88-2.45-4.33-3.66-2.61-2.15-5.62-3.76-8.17-6a.42.42,0,0,0-.33-.11,18.21,18.21,0,0,1-.35-3.46A.05.05,0,0,1,48.11,200.92Zm.43,4.66c2.51,2.1,5.39,3.69,7.91,5.78,1.44,1.2,2.84,2.45,4.3,3.63A35.71,35.71,0,0,0,64,217.65v.07c0,2.78.12,5.56,0,8.35,0,1.41-.08,2.8-.2,4.21a14.17,14.17,0,0,0-.1,1.72,2.59,2.59,0,0,1-.21,1.46,2.46,2.46,0,0,0-.47.1l-.07,0a.39.39,0,0,0-.55.1c-.2.28-1,.24-1.29.24a20.66,20.66,0,0,1-2.08-.08,10.11,10.11,0,0,0-2.33.1,14.06,14.06,0,0,1-3.28.43h-.09c-.09-1.13-.2-2.25-.32-3.38l-.18-1.56a17.72,17.72,0,0,1,0-1.93c0-1.23,0-3.72-1.73-3.63a17.67,17.67,0,0,0-1.76.35,10.11,10.11,0,0,1-1.35,0,13.85,13.85,0,0,0-1.57.13.49.49,0,0,0-.43.38,24.56,24.56,0,0,0-.29,4.11,30.27,30.27,0,0,0,.18,4c.08.56.16,1.1.23,1.65a.33.33,0,0,0-.15.11s-.73,0-.83,0a8.77,8.77,0,0,0-1,.11c-.69.09-1.38.14-2.07.21a41.83,41.83,0,0,1-4.19,0l-.13,0-.15,0h-.06v0c0-2.31-.13-4.63-.3-6.95a.37.37,0,0,0,0-.34c-.06-.91-.14-1.82-.21-2.72s-.13-1.59-.15-2.38a16.9,16.9,0,0,0-.09-1.74c-.06-.48-.14-1-.19-1.46,0-.22,0-.46,0-.68a2.44,2.44,0,0,1,0-.27c0-.15.06-.12-.07,0a.47.47,0,0,0,.16-.52,17.54,17.54,0,0,0,3.78-3.67c.66-.75,1.42-1.42,2.1-2.16s1.44-1.6,2.22-2.33,1.4-1.42,2.09-2.13A15.1,15.1,0,0,0,48.54,205.58Zm-1.3,30.56a29.27,29.27,0,0,0-.34-2.95,30.21,30.21,0,0,1-.22-3.69,23.68,23.68,0,0,1,.22-4.21,23.62,23.62,0,0,0,3.16-.23,7.72,7.72,0,0,1,1.24-.23c.24,0,.27.13.36.38.49,1.39.12,2.92.29,4.36s.29,2.64.41,4a31.68,31.68,0,0,1,.24,4.13s0,.13,0,.16,0,0,0,0a.54.54,0,0,0-.07.29l-1.68.12c-.67,0-1.34.11-2,.11s-1.2,0-1.8,0A4.56,4.56,0,0,0,47.24,236.14Zm5.67,1.47a.47.47,0,0,0-.33.22C52.61,237.72,52.69,237.64,52.91,237.61ZM35.69,217.28l0,0h0a9,9,0,0,1-1-.65c-.23-.2-.45-.41-.66-.62.95-1.43,2.43-2.38,3.57-3.64,1.45-1.6,3-3.15,4.41-4.76s2.85-3.15,4.28-4.72a12.13,12.13,0,0,1,1-.91,19.21,19.21,0,0,0,.4,2.91.46.46,0,0,0,.12.23,45.91,45.91,0,0,1-3.23,3.47c-.65.69-1.34,1.33-2,2s-1.36,1.51-2.08,2.23a46.75,46.75,0,0,1-3.76,3.82A7.56,7.56,0,0,1,35.69,217.28Zm.84,17.9h0a1,1,0,0,0-.65.76,5.48,5.48,0,0,0,0,2.64.6.6,0,0,0-.19.08c-.83.54-2-.47-2.46-1.07a2.51,2.51,0,0,1-.61-1.28c0-.45.28-.65.68-.76a.47.47,0,0,0,.15-.8,2.07,2.07,0,0,1-.86-2.21,1.68,1.68,0,0,1,1.87-1.19.48.48,0,0,0,.4-.82c-.48-.46-.17-1.16.18-1.59a1.8,1.8,0,0,1,1.14-.73.39.39,0,0,0,.16.33c.15,2.2.27,4.39.28,6.59Zm8,4.94c-2.42.08-4.83.15-7.25.16a1.64,1.64,0,0,1-.32-1.05c-.06-.61-.19-1.21-.26-1.82a2.92,2.92,0,0,1,.06-1.06,1.09,1.09,0,0,0,.09-.21.58.58,0,0,0,.29-.12,7,7,0,0,0,.69-.15h0l.16,0c1.58,0,3.13.06,4.71,0,.75,0,1.5-.18,2.24-.26a7.71,7.71,0,0,0,1.37-.05c0,.06,0,.13,0,.19a4.11,4.11,0,0,1-.21,2.41.41.41,0,0,0,0,.38,3.11,3.11,0,0,0-.9.35A1.31,1.31,0,0,0,44.49,240.12Zm11.81-.2L53,240c-2.53.06-5.06.06-7.6.12,0-.3.19-.46.59-.6a5.65,5.65,0,0,1,1.54-.18c1.13,0,2.23-.05,3.35-.13,1.35-.09,2.71-.15,4.06-.23a8.66,8.66,0,0,1,1.25,0c.19,0,.27.28.3.57A.42.42,0,0,0,56.3,239.92Zm6.27-.3a17.46,17.46,0,0,1-2.7.22l-2.38,0a2.63,2.63,0,0,0-.44-1.55,1.77,1.77,0,0,0-1.48-.37c-.7,0-1.39.05-2.08.1a2.38,2.38,0,0,0,0-.53,17.63,17.63,0,0,0,0-1.78l0-.46a14.36,14.36,0,0,0,3.2-.38,10.3,10.3,0,0,1,2.54-.13,20.37,20.37,0,0,0,2.35.06,2.41,2.41,0,0,0,1.52-.43.46.46,0,0,0,.33,0,3.56,3.56,0,0,1,.92-.11c0,1.55.13,3.09.14,4.64A5.19,5.19,0,0,1,62.57,239.62Zm6.81-2.44a5.49,5.49,0,0,1-3.8,1,.51.51,0,0,0-.22.05c0-.26,0-.53,0-.79,0-1.21-.11-2.41-.11-3.62a.47.47,0,0,0-.5-.43H64.6a14.77,14.77,0,0,0,.14-2.57l.05-.73a.42.42,0,0,0,.44-.49c-.06-.51.57-.77,1-.9s.63.22.79.46a2.06,2.06,0,0,1-.06,2.14.47.47,0,0,0,.51.75c.56-.16,1.35-.48,1.73.13a1.82,1.82,0,0,1-.55,2.21c-.36.37.08.86.5.75.57-.13.62.45.64.89A1.27,1.27,0,0,1,69.38,237.18Z"/><path class="cls-1" d="M52.14,215.45a2.92,2.92,0,0,0-2.79-2.67,3.77,3.77,0,0,0-3.57,2,3.28,3.28,0,0,0-.26.72.49.49,0,0,0-.21.41,2.89,2.89,0,0,0,3.43,3.25A3.37,3.37,0,0,0,52.14,215.45ZM51,216.92a2.34,2.34,0,0,1-1.8,1.24,3,3,0,0,1-2.32-.42,2.07,2.07,0,0,1-.59-1.56.53.53,0,0,0,.12-.25,2.71,2.71,0,0,1,2.2-2.19,2.14,2.14,0,0,1,2.48,1.17A2.55,2.55,0,0,1,51,216.92Zm10.47,12.4c-.13-1.92-.16-3.85-.43-5.76a.45.45,0,0,0-.37-.43,18,18,0,0,0-3,0,6,6,0,0,0-2.8.55.4.4,0,0,0-.19.49.49.49,0,0,0-.16.36v1.71a.5.5,0,0,0,0,.67v3c0,.53.72.53.9.12a.43.43,0,0,0,.17,0c1.83,0,3.66-.14,5.48-.14A.48.48,0,0,0,61.44,229.32Zm-4-5.3c0,.67.09,1.36.13,2-.72,0-1.44,0-2.15,0v-1.71A4.51,4.51,0,0,1,57.41,224Zm-.1,4.56a.41.41,0,0,0,0,.4c-.62,0-1.24,0-1.85,0h-.06v-2l2.19,0A3.22,3.22,0,0,1,57.31,228.58ZM60.13,224c.09.68.14,1.36.18,2a.4.4,0,0,0-.36-.13c-.49,0-1,.06-1.48.08,0-.68-.09-1.36-.12-2A15.11,15.11,0,0,1,60.13,224Zm-2,4.94a4.49,4.49,0,0,0,.33-2c.51,0,1-.05,1.52-.09a.45.45,0,0,0,.33-.18c0,.73.07,1.46.12,2.2C59.7,228.9,58.94,228.93,58.17,229Zm-13.29-1.18c0-1-.17-2-.18-3a.42.42,0,0,0-.58-.39.48.48,0,0,0-.49-.46c-.32,0-.65,0-1,0s-.53.11-.8.11c-.48,0-.94,0-1.42,0-.75,0-1.71,0-2.07.82a5.32,5.32,0,0,0-.15,2.54c.07.87.23,1.73.34,2.59a.47.47,0,0,0,.38.42c1,.11,1.91.33,2.88.42.76.07,2.07.18,2.57-.55A4.32,4.32,0,0,0,44.88,227.78ZM42,225c.24,0,.47-.09.71-.11a8.19,8.19,0,0,1,1,0h.05c0,.77.11,1.53.15,2.29a.41.41,0,0,0-.22.09,3.19,3.19,0,0,1-1.77.34c0-.84,0-1.68,0-2.52v0ZM41,229c0,.17,0,.34,0,.51a.36.36,0,0,1,0,.11.38.38,0,0,0-.1.29l-1.37-.23c0-.4-.12-.81-.18-1.22.58,0,1.15.07,1.72.1C41,228.66,41,228.81,41,229Zm0-1.37c-.61,0-1.23-.09-1.84-.11a6.16,6.16,0,0,1,0-2c.06-.23.1-.24.3-.29a6.64,6.64,0,0,1,1.26-.12H41a.37.37,0,0,0,0,.11c0,.79,0,1.57,0,2.35v.08Zm2.72,2.13c-.24.49-1.37.34-1.93.28a3.28,3.28,0,0,0,.08-.41c0-.34,0-.69.06-1.05a4.58,4.58,0,0,0,2-.34A3.53,3.53,0,0,1,43.71,229.72Zm4.43,2.46,0,0s0,0,0,0v0s0-.09,0-.13,0-.28,0-.43a.47.47,0,0,0-.94.08,1.64,1.64,0,0,0,.22,1.07.46.46,0,0,0,.64.12A.44.44,0,0,0,48.14,232.18Z"/><path class="cls-1" d="M130.52,130.18h0a13.36,13.36,0,0,1-.15,2.19c-.14.9-.36,1.82-.41,2.73l-.27,5.75c-.09,2-.14,4-.2,6,0,1-.06,2-.11,3.07a12.09,12.09,0,0,1-.09,1.21,2.27,2.27,0,0,0-.12.76.52.52,0,0,1-.06.35l.13.1a12.68,12.68,0,0,0,1.18.9,10.43,10.43,0,0,0,.23-2.79c0-1,.1-1.92.16-2.89.11-2,.23-3.91.33-5.86.22-3.81.39-7.63.4-11.46A1.44,1.44,0,0,0,130.52,130.18Z"/><path class="cls-1" d="M143.49,118.34c-.47-2-1.19-3.93-3.11-4.89a15.28,15.28,0,0,0-6.56-1.41,9.9,9.9,0,0,0-6.18,1.67,10,10,0,0,0-3.34,5.07,8.39,8.39,0,0,0-.38,2.9,7.17,7.17,0,0,0,1.17,3.24,19.9,19.9,0,0,0,2.17,2.61,3.66,3.66,0,0,1,1,2,.36.36,0,0,1,.13.29c0,2.85-.29,5.69-.41,8.54s-.17,5.75-.19,8.62c0,.74,0,1.47,0,2.21A3.53,3.53,0,0,0,128,151a3.71,3.71,0,0,0,.28.41c0-.43.17-.87.19-1.28,0-1,.08-2.06.11-3.08.06-2.05.1-4.1.2-6.16l.28-5.9c.08-1.76.68-3.44.52-5.23a.43.43,0,0,1,.6-.42l0,0a2.6,2.6,0,0,1,1.91.2.44.44,0,0,1,.24.36c0,4-.19,8.05-.42,12.06-.12,2-.24,4-.35,6-.06,1-.13,1.89-.13,2.84a8.57,8.57,0,0,1-.24,2.57.35.35,0,0,1-.08.16.45.45,0,0,0,.23,0,2.18,2.18,0,0,0,.79-.52c.42-.38.81-.81,1.23-1.19s.78-.63,1.18-.92.72-.52.55-.92c-.28-.65-1.23-1-1.22-1.77s.84-1.41,1.38-2a1.05,1.05,0,0,0,.25-1.23,10.5,10.5,0,0,1-.73-1,2.1,2.1,0,0,1,.19-2.37,5.4,5.4,0,0,0,.67-.92,1.22,1.22,0,0,0-.18-1.19,2.23,2.23,0,0,1-.32-1.55,3.44,3.44,0,0,1,.84-1.39c.34-.41,1-1,.76-1.55a8.47,8.47,0,0,1-.63-1.46,1.9,1.9,0,0,1,.26-1.4,1.44,1.44,0,0,0,0-1.06.4.4,0,0,1-.12-.27,2.64,2.64,0,0,1,1.47-2.56c.69-.38,1.45-.62,2.15-1a9.63,9.63,0,0,0,2.39-2,5.88,5.88,0,0,0,1.53-2.9A11.49,11.49,0,0,0,143.49,118.34Zm-8.82,2.46c-1.75.37-3.72-.27-4.2-2.16-.33-1.25-.24-3.49,1.24-4a.8.8,0,0,1,.09-.14,1.83,1.83,0,0,1,1.62-.53,4,4,0,0,1,3.65,2.9A3.13,3.13,0,0,1,134.67,120.8Z"/><path class="cls-1" d="M144.6,119.59a15.18,15.18,0,0,0-.93-3.62,6.53,6.53,0,0,0-1.47-2.28,6.6,6.6,0,0,0-2.46-1.45,18.31,18.31,0,0,0-6.68-1.06,10.28,10.28,0,0,0-6,1.88,11,11,0,0,0-3.42,5,8.16,8.16,0,0,0,0,6,11.48,11.48,0,0,0,2.15,3.19c.37.41.8.78,1.14,1.23a2.52,2.52,0,0,1,.47,1.56.49.49,0,0,0,.08.25c0,2.71-.29,5.41-.4,8.12-.12,2.87-.17,5.75-.2,8.61,0,.69,0,1.37,0,2.06a6.62,6.62,0,0,0,.17,1.93,5.56,5.56,0,0,0,2.21,2.47,5.15,5.15,0,0,0,1.36.84,1.81,1.81,0,0,0,1.55-.21,6.64,6.64,0,0,0,1.26-1.11,11.83,11.83,0,0,1,1.36-1.19c.71-.53,1.48-1.11,1.15-2.12a2.17,2.17,0,0,0-.67-.91c-.18-.17-.59-.45-.48-.74a2.59,2.59,0,0,1,.78-.93,3.16,3.16,0,0,0,.82-1.07c.41-1-.22-1.67-.76-2.43s0-1.41.46-2.06a2.05,2.05,0,0,0,.23-2.38,1.44,1.44,0,0,1-.15-1.5c.3-.54.81-.95,1.15-1.46a1.7,1.7,0,0,0,.29-1.43c-.17-.57-.56-1-.68-1.63-.07-.38.3-.74.41-1.09s-.1-.91-.12-1.39a.38.38,0,0,0-.08-.24c.09-1.55,2.08-1.92,3.23-2.54a9.8,9.8,0,0,0,2.38-1.92,7.49,7.49,0,0,0,1.71-2.76A8.13,8.13,0,0,0,144.6,119.59ZM131.11,141.7l-.33,5.86c-.06,1-.13,1.92-.16,2.89a10.93,10.93,0,0,1-.23,2.79,10.21,10.21,0,0,1-1.18-.9l-.13-.1a.52.52,0,0,0,.06-.35,2.24,2.24,0,0,1,.12-.76,9.71,9.71,0,0,0,.09-1.21c.05-1,.09-2,.11-3.07.06-2,.1-4,.2-6l.27-5.75c0-.91.27-1.83.41-2.73a13.36,13.36,0,0,0,.15-2.19h0a1.35,1.35,0,0,1,1,.06C131.5,134.07,131.33,137.88,131.11,141.7Zm12.72-19.38a6,6,0,0,1-1.53,2.9,9,9,0,0,1-2.39,2c-.7.38-1.46.62-2.15,1a2.66,2.66,0,0,0-1.47,2.56.4.4,0,0,0,.12.27,1.44,1.44,0,0,1,0,1.06,2,2,0,0,0-.26,1.4,9.89,9.89,0,0,0,.63,1.46c.21.59-.42,1.14-.76,1.55a3.38,3.38,0,0,0-.84,1.39,2.22,2.22,0,0,0,.32,1.55,1.23,1.23,0,0,1,.18,1.19,5,5,0,0,1-.67.92,2.12,2.12,0,0,0-.19,2.37,12.54,12.54,0,0,0,.73,1,1,1,0,0,1-.24,1.23c-.55.64-1.38,1.11-1.39,2.05,0,.79.94,1.12,1.22,1.77.17.41-.27.72-.55.92a14.58,14.58,0,0,0-1.18.93c-.43.37-.8.8-1.23,1.19a2.29,2.29,0,0,1-.78.51.5.5,0,0,1-.24,0,.42.42,0,0,0,.09-.16,8.86,8.86,0,0,0,.23-2.57c0-1,.08-1.89.13-2.84.11-2,.24-4,.35-6,.22-4,.41-8,.42-12.06a.44.44,0,0,0-.24-.36,2.65,2.65,0,0,0-1.91-.2l0,0a.43.43,0,0,0-.6.43c.16,1.78-.44,3.45-.53,5.22-.09,2-.18,3.93-.28,5.9s-.14,4.11-.2,6.16c0,1-.06,2.06-.11,3.08,0,.41-.14.85-.19,1.28A4.21,4.21,0,0,1,128,151a3.53,3.53,0,0,1-.25-1.85c0-.74,0-1.47,0-2.21,0-2.87.07-5.75.19-8.62s.41-5.69.41-8.54a.37.37,0,0,0-.12-.29,3.54,3.54,0,0,0-1-2,20,20,0,0,1-2.17-2.61,7.18,7.18,0,0,1-1.17-3.23,8.42,8.42,0,0,1,.38-2.91,10.08,10.08,0,0,1,3.34-5.07A9.89,9.89,0,0,1,133.8,112a15.24,15.24,0,0,1,6.56,1.41c1.92,1,2.63,2.92,3.11,4.89A10.68,10.68,0,0,1,143.83,122.32Z"/><path class="cls-1" d="M137.07,116.89a4,4,0,0,0-3.65-2.9,1.88,1.88,0,0,0-1.62.53.8.8,0,0,0-.09.14c-1.48.5-1.56,2.73-1.24,4,.49,1.9,2.45,2.54,4.2,2.16A3.13,3.13,0,0,0,137.07,116.89Zm-1.85,2.81a3.37,3.37,0,0,1-2.23.3,2.24,2.24,0,0,1-1.61-1.39,3.1,3.1,0,0,1-.15-1.73c.06-.51.23-1.22.77-1.4a.39.39,0,0,0,.27-.26.51.51,0,0,0,.18-.13c.41-.46,1.22-.22,1.73-.07a3,3,0,0,1,1.58,1A2.51,2.51,0,0,1,135.22,119.7Z"/><path class="cls-1" d="M270.69,100.7a11,11,0,0,0-6.56-2c-2.18,0-4.61.24-6.45,1.53a6.33,6.33,0,0,0-2.07,2.35c-.54,1.11-.33,2.36-.43,3.55l2,0h0l0,0c-.89-1.47.67-3.26,1.64-4.25a5.64,5.64,0,0,1,2.16-1.48,8.31,8.31,0,0,1,3.32-.39c3.4.27,7.56,2.09,7.87,5.87h1.23A6.8,6.8,0,0,0,270.69,100.7ZM270.9,123c0-.43-.1-.86-.14-1.3a10,10,0,0,0-.1-1.09c-.16-.69-.48-1.53-1.32-1.48a.46.46,0,0,1-.5-.34.58.58,0,0,1-.75-.42,12,12,0,0,0-.95-3.39,2.91,2.91,0,0,0-2.72-1.49,3,3,0,0,0-2.85,2.06,2.75,2.75,0,0,0-.14,1.74,1.28,1.28,0,0,0,.52.71.6.6,0,0,1,.28.56.54.54,0,0,1-.48.56c-.68.12-1.43.65-1.35,1.41a.46.46,0,0,1-.17.42c.21,1.26.43,2.53.75,3.76.21.79.41,1.79,1.32,2a7,7,0,0,0,2.62,0,22.78,22.78,0,0,1,3.2,0c.93,0,2.14,0,2.58-1A5.36,5.36,0,0,0,270.9,123Zm-7.58-4.73a.44.44,0,0,1-.45-.46c0-1,.19-3,1.58-3,1.67,0,2.24,2.14,2.26,3.45a.53.53,0,0,1-.48.56h-2.39A.53.53,0,0,1,263.32,118.22Zm3.48,6.35c-.85,0-1.68.26-2.53.28a.52.52,0,0,1-.5-.74,3.39,3.39,0,0,1,.53-.9,3.2,3.2,0,0,0,.22-.27,2.06,2.06,0,0,1-.73-2,1.31,1.31,0,0,1,1.78-1,1.13,1.13,0,0,1,.78,1.15,3.93,3.93,0,0,1-.14,1.38,1,1,0,0,0,0,.1,3,3,0,0,0,.24.28c.33.32.87.68.87,1.19A.53.53,0,0,1,266.8,124.57Z"/><path class="cls-1" d="M264.47,115.82c-.52,0-.56,1.55-.57,1.87a.19.19,0,0,1,0,.08h1.75C265.57,117,265.27,115.9,264.47,115.82Z"/><path class="cls-1" d="M281.15,126.4c-.67,0-.74-1-.08-1,1.08,0,2.16-.12,3.24-.14,0-1-.09-1.93-.16-2.9h0c-.49-.45-1.45-.3-2-.24-.78.07-1.57.22-2.36.23s-.74-1-.07-1c.91,0,1.81-.21,2.73-.26a5,5,0,0,1,1.63.1c-.11-1.07-.24-2.13-.38-3.19a.58.58,0,0,1-.37-.44c-1.55,0-3.11.3-4.66.31-.67,0-.75-1-.08-1,1.64,0,3.27-.33,4.91-.3-.18-1.29-.37-2.59-.55-3.88h-5.55c-.67,0-.74-1-.08-1h5.5c-.09-.65-.16-1.3-.23-1.94a.5.5,0,0,1-.52-.6c.42-2.32-3.7-2.07-5.08-2.07H272a.56.56,0,0,1-.69,0c-2.87,0-5.74,0-8.6.11-2.18,0-4.37.23-6.55.13-1.45-.07-2.9-.14-4.36-.1-1.79,0-5.82.13-6,2.5a.41.41,0,0,1,.15.33c.09,1.24.15,2.5.21,3.75h.09a19.47,19.47,0,0,0,2.64-.35,4.65,4.65,0,0,1,2.13,0c.63.22.16,1.15-.46.93a3.06,3.06,0,0,0-.79,0c-.39.05-.78.1-1.17.17a15.79,15.79,0,0,1-2.28.29h-.12l.12,2.92h.06c1.06.13,2.26,0,3.35,0,.81,0,2.28,0,2.66.88.24.6-.67.93-1,.4h0l-.15-.07a4.48,4.48,0,0,0-.62-.11,13.82,13.82,0,0,0-1.58-.07c-.9,0-1.82.08-2.71,0,0,1.32.1,2.64.17,4a.54.54,0,0,1,.27-.08c.82,0,1.64-.13,2.46-.15a4,4,0,0,1,2.16.33c.56.35.11,1.28-.46.93a3.33,3.33,0,0,0-1.88-.22c-.74,0-1.48.13-2.21.13a.55.55,0,0,1-.31-.1c.08,1.4.15,2.8.26,4.2a.48.48,0,0,1,.26-.06c1.69,0,3.37-.27,5.06-.28.67,0,.74,1,.08,1-1.69,0-3.38.27-5.07.28a.46.46,0,0,1-.26-.07l.12,1.24c.16,1.51.52,3.18,1.8,4.16,1.93,1.46,4.56,1.51,6.87,1.44,2.9-.1,5.8-.43,8.71-.5a46.35,46.35,0,0,1,8.94.91,12,12,0,0,0,6.23-.18,6.56,6.56,0,0,0,3.6-3.11,13.21,13.21,0,0,0,1.19-6.27C283.26,126.28,282.21,126.39,281.15,126.4Zm-27.38-12.09a.5.5,0,0,1-.18-.34v-.14a.56.56,0,0,1,.13-.39.59.59,0,0,1,.35-.18.54.54,0,0,1,.39.14.49.49,0,0,1,.17.34v.14a.53.53,0,0,1-.13.39.54.54,0,0,1-.34.18A.54.54,0,0,1,253.77,114.31Zm.67,4.58v-.14a.58.58,0,0,1,.13-.39.49.49,0,0,1,.35-.17.48.48,0,0,1,.38.13.5.5,0,0,1,.18.34v.14a.54.54,0,0,1-.13.39.59.59,0,0,1-.35.18.52.52,0,0,1-.38-.13A.47.47,0,0,1,254.44,118.89Zm.62,4.51c.66,0,.74,1,.07,1S254.39,123.4,255.06,123.4Zm.7,4.65a.54.54,0,0,1-.35.18h-.14a.53.53,0,0,1-.38-.13.54.54,0,0,1-.18-.35.56.56,0,0,1,.13-.39.51.51,0,0,1,.35-.17h.14a.53.53,0,0,1,.56.47A.54.54,0,0,1,255.76,128.05Zm16.11-2.7a2.69,2.69,0,0,1-1.71,2.07,9.31,9.31,0,0,1-3.37.2,28,28,0,0,0-3,.2,3.81,3.81,0,0,1-2.46-.48,4.16,4.16,0,0,1-1.37-2.66c-.35-1.44-.59-2.91-.84-4.38a.43.43,0,0,1,.36-.52,2.52,2.52,0,0,1,1.39-1.46,3.54,3.54,0,0,1,0-3.61,3.85,3.85,0,0,1,3.54-2.28,4,4,0,0,1,3.61,1.86,12.89,12.89,0,0,1,1.13,3.81.53.53,0,0,1,.18,0,2.29,2.29,0,0,1,2.29,1.87,14.92,14.92,0,0,1,.33,2.48A8.54,8.54,0,0,1,271.87,125.35Zm1.74-12.86a.53.53,0,0,1-.13.38.59.59,0,0,1-.35.18.52.52,0,0,1-.38-.13.5.5,0,0,1-.18-.35v-.14a.53.53,0,0,1,.13-.38.52.52,0,0,1,.35-.18.48.48,0,0,1,.38.13.5.5,0,0,1,.18.35Zm2,6.18a.56.56,0,0,1-.13.39.59.59,0,0,1-.35.18.5.5,0,0,1-.38-.14.46.46,0,0,1-.18-.34v-.28a.56.56,0,0,1,.13-.39.54.54,0,0,1,.35-.18.55.55,0,0,1,.56.48Zm.64,5.9a.52.52,0,0,1-.55-.48v-.42a.52.52,0,0,1,.48-.55.51.51,0,0,1,.55.48V124A.53.53,0,0,1,276.22,124.57Zm1.45,4.59a.76.76,0,0,1-.13.29.83.83,0,0,1-.23.15l-.15,0h-.08a.58.58,0,0,1-.39-.13.52.52,0,0,1,0-.73.2.2,0,0,1,.1-.08l0-.06a.52.52,0,0,1,.91.3A1.6,1.6,0,0,1,277.67,129.16Z"/><path class="cls-1" d="M285.26,123.44c-.3-5-1.37-10-1.81-15A.49.49,0,0,0,283,108c-.79-2.4-5.65-2-7.62-2h-.91a7.81,7.81,0,0,0-2.69-5.74,11.73,11.73,0,0,0-6.94-2.49,13.56,13.56,0,0,0-7.11,1.32,7.35,7.35,0,0,0-2.51,2.29,6,6,0,0,0-1,3.61c0,.38,0,.76,0,1.14v.05a30,30,0,0,0-4.45.07c-2.22.25-5.29,1.13-5,4a.58.58,0,0,0,.17.34c.38,6,.42,12,.92,18,.19,2.17.35,4.5,2.05,6.07s4.41,1.87,6.68,1.89c2.8,0,5.61-.3,8.4-.46a32.24,32.24,0,0,1,4.61,0c1.49.12,3,.37,4.46.63a17.28,17.28,0,0,0,6.83.27,7.76,7.76,0,0,0,4.27-2.55C285.63,131.4,285.48,127.05,285.26,123.44Zm-29.64-20.8a6.25,6.25,0,0,1,2.07-2.35c1.84-1.29,4.26-1.51,6.45-1.53a11,11,0,0,1,6.56,1.95,6.81,6.81,0,0,1,2.72,5.26h-1.23c-.31-3.78-4.47-5.59-7.87-5.87a8,8,0,0,0-3.32.39,5.46,5.46,0,0,0-2.16,1.48c-1,1-2.53,2.77-1.64,4.24l0,0h0l-2,0C255.28,105,255.08,103.75,255.62,102.64Zm2.43,3c-.29-.47.13-1.14.38-1.54a8.81,8.81,0,0,1,1.39-1.65,5.73,5.73,0,0,1,4.87-1.26c2.79.36,6.09,1.76,6.45,4.8l-5,0c-1.53,0-3.06,0-4.59.08-1.17,0-2.34.11-3.51.14A.52.52,0,0,0,258.05,105.62Zm25.07,26.91a6.52,6.52,0,0,1-3.6,3.11,12,12,0,0,1-6.23.18,45.65,45.65,0,0,0-8.94-.91c-2.91.07-5.81.39-8.71.5-2.32.08-4.94,0-6.87-1.45-1.27-1-1.63-2.64-1.8-4.15l-.12-1.24a.57.57,0,0,0,.27.07c1.68,0,3.37-.27,5.06-.28.66,0,.58-1-.08-1-1.68,0-3.37.27-5.06.28a.66.66,0,0,0-.26.06c-.11-1.39-.18-2.8-.26-4.2a.55.55,0,0,0,.31.1c.74,0,1.48-.1,2.21-.13a3.33,3.33,0,0,1,1.88.22c.57.35,1-.58.46-.93a4,4,0,0,0-2.16-.33c-.82,0-1.64.14-2.46.15a.38.38,0,0,0-.27.08c-.07-1.32-.12-2.64-.17-4,.9.08,1.82,0,2.71,0a13.92,13.92,0,0,1,1.58.07,6.17,6.17,0,0,1,.62.11l.15.07a0,0,0,0,1,0,0c.28.53,1.19.2,1-.4-.38-.92-1.85-.85-2.66-.88-1.1,0-2.29.1-3.35,0h-.06c0-1-.07-1.95-.12-2.92h.12a14.51,14.51,0,0,0,2.28-.29c.38-.07.78-.13,1.17-.17a2.67,2.67,0,0,1,.79,0c.62.21,1.09-.7.46-.93a4.51,4.51,0,0,0-2.13,0,19.47,19.47,0,0,1-2.64.35h-.09c-.05-1.25-.12-2.51-.2-3.75a.47.47,0,0,0-.15-.33c.2-2.37,4.23-2.46,6-2.51,1.46,0,2.91,0,4.36.11,2.18.1,4.37-.09,6.55-.13,2.87-.07,5.73-.1,8.6-.11a.57.57,0,0,0,.69,0h4.94c1.39,0,5.5-.25,5.08,2.07a.5.5,0,0,0,.52.6c.07.64.15,1.29.23,1.94h-5.48c-.67,0-.59,1,.07,1h5.55c.18,1.29.37,2.58.55,3.88-1.64,0-3.26.28-4.91.3-.66,0-.58,1,.08,1,1.55,0,3.11-.34,4.66-.31a.61.61,0,0,0,.37.44c.14,1.06.27,2.13.38,3.19a5,5,0,0,0-1.63-.1c-.91,0-1.82.24-2.73.26-.67,0-.59,1,.07,1s1.58-.16,2.36-.24c.59,0,1.56-.2,2.05.25h0c.08,1,.14,1.93.16,2.9-1.08,0-2.16.13-3.24.14-.66,0-.58,1,.08,1,1.06,0,2.11-.12,3.17-.14A13.08,13.08,0,0,1,283.12,132.53Z"/><path class="cls-1" d="M271.87,122.41a14.78,14.78,0,0,0-.33-2.48,2.29,2.29,0,0,0-2.29-1.87.48.48,0,0,0-.18,0,12.89,12.89,0,0,0-1.13-3.81,4,4,0,0,0-3.61-1.86,3.87,3.87,0,0,0-3.54,2.28,3.54,3.54,0,0,0,0,3.61,2.52,2.52,0,0,0-1.39,1.46.43.43,0,0,0-.36.52c.24,1.47.5,2.94.84,4.38a4.11,4.11,0,0,0,1.37,2.66,3.8,3.8,0,0,0,2.46.48,28,28,0,0,1,3-.2,9.31,9.31,0,0,0,3.37-.2,2.72,2.72,0,0,0,1.72-2.07A8.3,8.3,0,0,0,271.87,122.41Zm-1.17,3.22c-.44,1-1.65,1-2.58,1a21.36,21.36,0,0,0-3.2,0,6.8,6.8,0,0,1-2.62,0c-.91-.25-1.12-1.24-1.32-2-.32-1.23-.54-2.49-.75-3.76a.49.49,0,0,0,.17-.42c-.08-.76.67-1.29,1.35-1.41a.55.55,0,0,0,.48-.56A.62.62,0,0,0,262,118a1.31,1.31,0,0,1-.52-.71,2.68,2.68,0,0,1,.14-1.74,3,3,0,0,1,2.85-2.06,2.87,2.87,0,0,1,2.72,1.49,12.29,12.29,0,0,1,.95,3.39.59.59,0,0,0,.75.42.48.48,0,0,0,.5.34c.85,0,1.16.78,1.32,1.48a7.89,7.89,0,0,1,.1,1.09c0,.44.1.87.14,1.3A5.37,5.37,0,0,1,270.7,125.63Z"/><path class="cls-1" d="M264.45,114.79c-1.39,0-1.58,1.95-1.58,3a.44.44,0,0,0,.45.46.53.53,0,0,0,.53.58h2.39a.53.53,0,0,0,.48-.55C266.7,116.93,266.12,114.78,264.45,114.79Zm-.55,3s0,0,0-.08c0-.31,0-1.91.57-1.87.8.08,1.09,1.14,1.18,2Zm2.5,5.06a2,2,0,0,1-.24-.28,1,1,0,0,0,0-.1,4,4,0,0,0,.14-1.38,1.13,1.13,0,0,0-.78-1.15,1.31,1.31,0,0,0-1.78,1,2,2,0,0,0,.74,2l-.23.27a3.11,3.11,0,0,0-.52.9.51.51,0,0,0,.49.74c.86,0,1.68-.26,2.53-.28a.52.52,0,0,0,.48-.55C267.28,123.51,266.74,123.15,266.4,122.83Zm-11.95-9.43a.56.56,0,0,0-.39-.13.5.5,0,0,0-.34.18.55.55,0,0,0-.14.39V114a.5.5,0,0,0,.18.34.52.52,0,0,0,.39.13.45.45,0,0,0,.34-.17.56.56,0,0,0,.13-.39v-.14A.51.51,0,0,0,254.45,113.4Zm.84,4.93a.48.48,0,0,0-.38-.13.46.46,0,0,0-.35.17.61.61,0,0,0-.13.39v.14a.5.5,0,0,0,.18.35.52.52,0,0,0,.38.13.54.54,0,0,0,.35-.18.59.59,0,0,0,.13-.39v-.14A.48.48,0,0,0,255.29,118.33Zm-.23,5.07c-.67,0-.59,1,.07,1S255.71,123.4,255.06,123.4Zm.65,3.93a.52.52,0,0,0-.38-.13h-.14a.51.51,0,0,0-.35.17.56.56,0,0,0-.13.39.46.46,0,0,0,.18.34.53.53,0,0,0,.38.14h.14a.54.54,0,0,0,.35-.18.56.56,0,0,0,.13-.39A.45.45,0,0,0,255.71,127.33ZM273.43,112a.51.51,0,0,0-.73,0,.57.57,0,0,0-.13.38v.14a.5.5,0,0,0,.18.35.52.52,0,0,0,.38.13.54.54,0,0,0,.35-.18.57.57,0,0,0,.13-.38v-.14A.48.48,0,0,0,273.43,112Zm2,6a.49.49,0,0,0-.38-.14.5.5,0,0,0-.35.18.54.54,0,0,0-.13.39v.28a.46.46,0,0,0,.18.34.49.49,0,0,0,.38.14.54.54,0,0,0,.35-.18.59.59,0,0,0,.13-.39v-.28A.48.48,0,0,0,275.4,118.05Zm.74,5.07a.52.52,0,0,0-.48.55v.42a.53.53,0,0,0,.56.48.51.51,0,0,0,.47-.55v-.42A.5.5,0,0,0,276.14,123.12Zm1.55,5.82a.54.54,0,0,0-.18-.35.53.53,0,0,0-.39-.13.5.5,0,0,0-.34.18l0,.06a.39.39,0,0,0-.1.08.48.48,0,0,0-.13.38.49.49,0,0,0,.17.35.61.61,0,0,0,.39.13h.08a.37.37,0,0,0,.15,0,.53.53,0,0,0,.36-.43A.63.63,0,0,0,277.69,128.94Z"/><path class="cls-1" d="M52.56,113.64c-.15-1.6-.35-3.2-.4-4.81a.44.44,0,0,1-.19-.07c-2.07.15-4,1.13-6.08,1.36a43.76,43.76,0,0,1-7.24,0c-4.9-.23-9.82-.12-14.73-.12h0a13.81,13.81,0,0,1,.05,3.21c-.05,2.06,0,4.11.14,6.15s.26,3.88.35,5.82c.4-.38.83-.73,1.22-1.12s.87-1,1.36-1.4a4.15,4.15,0,0,1,1.7-1,3.14,3.14,0,0,1,1.89.18A11,11,0,0,1,33.85,124a3.48,3.48,0,0,0,1.44,1c.44.08.87-.28,1.18-.53.76-.65,1.41-1.45,2.13-2.14,1.06-1,2.07-2.1,3.06-3.18s2-2,3.09-3c.64-.58,1.25-1.73,2.23-1.75a3.48,3.48,0,0,1,1.82.75c.71.44,1.4.91,2.06,1.41a10.8,10.8,0,0,1,1.82,1.69l0,0C52.7,116.73,52.71,115.19,52.56,113.64Zm-16.7,1.47c-.73,2.62-5.57,1-5.18-1.54a.47.47,0,0,1,.41-.4C32,110.79,36.6,112.46,35.86,115.11Z"/><path class="cls-1" d="M22.08,134.93h0l.08-.11A1.31,1.31,0,0,1,22.08,134.93Z"/><path class="cls-1" d="M53,124.7c-.06-1.48-.15-3-.2-4.45-.33,0-.68-.18-.56-.58,0-.12,0-.21-.08-.42a4,4,0,0,0-.58-.73,15.09,15.09,0,0,0-1.9-1.57,20.72,20.72,0,0,0-1.77-1.16,2.67,2.67,0,0,0-.66-.36c-.38-.08-.64.22-.88.49-.84.93-1.79,1.75-2.69,2.63-1,1-2,2.14-3,3.2-.84.86-1.7,1.68-2.52,2.55a5.2,5.2,0,0,1-2.3,1.69c-1,.25-1.93-.59-2.65-1.23a10.46,10.46,0,0,0-2.77-1.89,2.22,2.22,0,0,0-1.73-.11,4.53,4.53,0,0,0-1.32,1c-.43.44-.83.91-1.29,1.32s-1,.87-1.44,1.36a.46.46,0,0,1-.16.13c0,.78,0,1.57,0,2.35v1.18a.39.39,0,0,1,.08.41,1.34,1.34,0,0,1-.07.18l.05.07a1.24,1.24,0,0,0,.53.31,7.44,7.44,0,0,0,1.88.42,59.15,59.15,0,0,0,8.93.07c3.07-.11,6.13-.44,9.18-.61,1.53-.08,3.06-.08,4.59-.11.42,0,.84,0,1.26-.07a3.36,3.36,0,0,0,.85-.27,4.24,4.24,0,0,1,1.29-.3C53.09,128.38,53.09,126.54,53,124.7Z"/><path class="cls-1" d="M32,113.86a.45.45,0,0,1-.24.35,2.06,2.06,0,0,0,1.29,1c.55.17,1.59.37,1.83-.36C35.37,113.39,32.24,112.16,32,113.86Z"/><path class="cls-1" d="M56.17,130.45c0-1.19-.11-2.38-.19-3.57-.15-2.52-.29-5-.44-7.54s-.27-5-.32-7.52c0-1.16,0-2.32-.11-3.49a10.58,10.58,0,0,0-.43-2.73.47.47,0,0,1-.13-.15c-2.75,0-5.45.78-8.16,1.13a70.3,70.3,0,0,1-8.71.47c-2.9,0-5.82,0-8.72-.08l-4.14,0a14.52,14.52,0,0,0-3.95.37h0a.4.4,0,0,1-.07.28h0v.23c0,.33,0,.66,0,1,.09,2.78.36,5.54.43,8.32s0,5.59.1,8.39c0,1.49.12,3,.25,4.46a37,37,0,0,1,.23,3.94,5.27,5.27,0,0,1,2.3,0c.78.07,1.56.18,2.34.28,1.12.16,2.26.21,3.4.3,3.06.27,6.1.52,9.18.49a60.84,60.84,0,0,0,9.14-.69c1.43-.22,2.88-.39,4.31-.57.52-.06,1-.11,1.56-.2a2.7,2.7,0,0,0,1.18-.32l0,0a.54.54,0,0,1,.42-.5c.11-.26.23-.51.34-.77A3.29,3.29,0,0,0,56.17,130.45Zm-2.06-.13a.5.5,0,0,1-.31.48.56.56,0,0,1-.59.44c-.76-.07-1.45.52-2.2.59-1,.08-1.93.06-2.91.07-2,0-3.93.16-5.89.31-4,.31-8,.54-12,.51a21.59,21.59,0,0,1-4.61-.39c-1-.22-2.28-.66-2.16-1.88h0a6.53,6.53,0,0,1,0-.88c0-1,0-2,0-3-.06-2.11-.24-4.23-.36-6.35s-.21-4.29-.2-6.43c0-.76.07-1.53.06-2.29a3.94,3.94,0,0,0-.35-2c-.34-.57.52-1.15.85-.58l.09.15a.44.44,0,0,1,.29-.09c4.9,0,9.82-.12,14.73.12a43.75,43.75,0,0,0,7.24,0c2.22-.27,4.28-1.35,6.54-1.39a1.15,1.15,0,0,1,.83.48c0,1.86.28,3.69.43,5.55s.13,3.66.19,5.49S54,123,54,124.83,54.11,128.48,54.11,130.32Z"/><path class="cls-1" d="M22.08,134.93h0s0,0,0,0Z"/><path class="cls-1" d="M57,127c-.17-2.57-.3-5.15-.45-7.72s-.28-5.12-.34-7.69c0-1.16-.05-2.31-.11-3.46a10.43,10.43,0,0,0-.5-2.89.48.48,0,0,0,0-.17c.11-.35-.24-.6-.54-.61-2.91-.08-5.79.7-8.66,1.1a67.84,67.84,0,0,1-8.89.5c-3,0-5.94,0-8.91-.08l-4.11,0a14.62,14.62,0,0,0-4.06.44.41.41,0,0,0-.34.45h0c-.42.1-.4.68-.41,1,0,.55,0,1.09,0,1.65.06,1.59.16,3.18.25,4.77.25,4.21.13,8.43.3,12.65.1,2.31.46,4.64.44,7a.49.49,0,0,0,0,.12v.47a.45.45,0,0,0,.57.45.58.58,0,0,0,.78.06h0l.1-.12c0,.06-.06.1-.08.11h0a2.34,2.34,0,0,1,.39,0,8.68,8.68,0,0,1,1.14,0c.81.07,1.6.17,2.4.28,1.05.15,2.12.2,3.18.29l4.57.4a69.08,69.08,0,0,0,9.1,0c3-.18,5.93-.67,8.9-1.05.72-.09,1.43-.16,2.14-.26a4,4,0,0,0,1.8-.51.48.48,0,0,0,.17-.21.52.52,0,0,0,.51-.41,7.35,7.35,0,0,1,.51-1.19,3.59,3.59,0,0,0,.25-1.55C57.2,129.46,57.11,128.23,57,127ZM56,131.92c-.12.26-.25.52-.35.77a.52.52,0,0,0-.41.5l0,0a2.58,2.58,0,0,1-1.18.33c-.52.08-1,.13-1.56.2-1.44.18-2.89.35-4.31.57A62.18,62.18,0,0,1,39,135c-3.08,0-6.12-.23-9.18-.49-1.13-.11-2.28-.14-3.4-.3-.78-.12-1.56-.22-2.34-.28a5.53,5.53,0,0,0-2.29,0c0-1.31-.12-2.62-.24-3.93-.13-1.48-.21-3-.25-4.47-.1-2.79,0-5.59-.1-8.39s-.34-5.54-.43-8.31c0-.34,0-.67,0-1v-.22h0a.4.4,0,0,0,.07-.28h0A14.17,14.17,0,0,1,24.8,107l4.14,0c2.9,0,5.82.09,8.73.08a70.51,70.51,0,0,0,8.71-.47c2.71-.36,5.4-1.09,8.15-1.13a1,1,0,0,0,.13.15,10,10,0,0,1,.43,2.73c.07,1.16.08,2.33.11,3.49,0,2.51.18,5,.33,7.52s.28,5,.44,7.53c.07,1.19.17,2.38.18,3.58A3,3,0,0,1,56,131.92Z"/><path class="cls-1" d="M54,124.8c-.07-1.85-.18-3.71-.25-5.57s0-3.67-.19-5.5-.42-3.68-.43-5.55a.47.47,0,0,0-.62-.44.65.65,0,0,0-.21,0c-2.25,0-4.32,1.11-6.55,1.39a41.56,41.56,0,0,1-7.23,0c-4.91-.24-9.82-.12-14.73-.12a.42.42,0,0,0-.29.09l-.09-.15c-.33-.57-1.19,0-.85.58a4,4,0,0,1,.35,2c0,.76-.06,1.53-.06,2.29,0,2.15.08,4.29.2,6.43s.3,4.24.35,6.36c0,1,0,2,0,3a6.53,6.53,0,0,0,0,.88h0c-.12,1.22,1.19,1.67,2.16,1.88a21.59,21.59,0,0,0,4.61.39c4,0,8-.2,12-.51,2-.15,3.92-.28,5.89-.31,1,0,1.94,0,2.91-.07.75-.07,1.43-.66,2.2-.59a.56.56,0,0,0,.59-.44.54.54,0,0,0,.31-.48C54.11,128.48,54.12,126.64,54,124.8Zm-30-5.38c-.1-2-.2-4.1-.14-6.15a13.28,13.28,0,0,0-.06-3.21h.05c4.9,0,9.83-.11,14.73.12a46.05,46.05,0,0,0,7.24-.05c2.07-.24,4-1.21,6.08-1.36a.62.62,0,0,0,.19.07c0,1.61.25,3.21.4,4.81s.14,3.09.18,4.64l0,0a10.49,10.49,0,0,0-1.83-1.69c-.65-.5-1.35-1-2-1.41A3.4,3.4,0,0,0,47,114.4c-1,0-1.59,1.17-2.22,1.75-1.06,1-2.12,1.94-3.09,3s-2,2.16-3.06,3.18c-.72.69-1.37,1.49-2.14,2.14-.31.25-.74.62-1.17.53a3.48,3.48,0,0,1-1.44-1,11.16,11.16,0,0,0-3.26-2.14,3.15,3.15,0,0,0-1.89-.18,4.25,4.25,0,0,0-1.71,1c-.48.44-.9.94-1.35,1.4s-.82.74-1.22,1.12C24.34,123.3,24.18,121.36,24.08,119.42Zm29,10.8a4.3,4.3,0,0,0-1.3.3,3.19,3.19,0,0,1-.84.28c-.42,0-.84,0-1.27.06-1.52,0-3,0-4.58.11-3.07.17-6.11.5-9.18.61a59.14,59.14,0,0,1-8.93-.07,8,8,0,0,1-1.89-.41,1.53,1.53,0,0,1-.52-.31l0-.08a1,1,0,0,0,.07-.18.4.4,0,0,0-.08-.41c0-.09,0-.19,0-.28,0-.3,0-.6,0-.9,0-.78,0-1.57,0-2.34a.55.55,0,0,0,.17-.14c.44-.49.95-.91,1.44-1.36s.86-.88,1.29-1.32a4.41,4.41,0,0,1,1.32-1,2.22,2.22,0,0,1,1.73.11,10.71,10.71,0,0,1,2.77,1.89c.71.64,1.61,1.47,2.65,1.23a5.31,5.31,0,0,0,2.29-1.69c.82-.87,1.69-1.69,2.52-2.55,1-1.06,2-2.17,3-3.2s1.85-1.69,2.69-2.63c.23-.26.5-.56.87-.49a2.56,2.56,0,0,1,.67.36,20.72,20.72,0,0,1,1.77,1.16,15.84,15.84,0,0,1,1.9,1.57,4.74,4.74,0,0,1,.58.74c.12.2.12.3.08.41-.12.39.23.62.55.58l.21,4.45C53.09,126.54,53.09,128.38,53.09,130.22Z"/><path class="cls-1" d="M31.09,113.17a.46.46,0,0,0-.41.4c-.4,2.49,4.45,4.16,5.18,1.54S32,110.79,31.09,113.17Zm3.77,1.68c-.24.72-1.29.53-1.83.36a2.08,2.08,0,0,1-1.29-1,.49.49,0,0,0,.24-.35C32.24,112.16,35.37,113.39,34.86,114.85Z"/><path class="cls-1" d="M209.87,183.91a15.05,15.05,0,0,0-.78-4.56c-.43-1.07-1.12-1.95-2.27-2a.46.46,0,0,1-.36.15,73.1,73.1,0,0,0-13.73,1.68c-2.16.43-4.34.72-6.49,1.21l-.16,0,.08.07a6.28,6.28,0,0,1,1.55,3.32,22.47,22.47,0,0,1,.45,4.48c.05,3.8-.78,7.53-1.41,11.26a75.54,75.54,0,0,0-1.08,8.85c-.11,2.22-.23,4.87,1.1,6.77a4.06,4.06,0,0,0,4.7,1.41c1.65-.8,1.71-2.91.91-4.33-.33-.59-.84-1.31-1.57-1.39s-1.45.67-1.7,1.33a3.29,3.29,0,0,0-.14.5.79.79,0,0,1,.18.14l.2,0,.61.08c.41,0,.82.08,1.23.08a.54.54,0,0,1,.53.6.52.52,0,0,1,.16.3c.29,1.45-1.54,2-2.63,1.58-1.37-.52-1.56-2.21-1.18-3.44a3.39,3.39,0,0,1,1.69-2.05.56.56,0,0,1,.31-.48,5.73,5.73,0,0,1,1.51-.46.45.45,0,0,1,.45-.55,43.64,43.64,0,0,0,7.41-.32,26.52,26.52,0,0,0,2.62-.55,5.83,5.83,0,0,0,1.09-.37l.23-.13c.06-.5.84-.7,1-.13a.8.8,0,0,1-.05.58l.95-.12c.6-.06,1.2-.09,1.8-.16h0a13,13,0,0,1-.58-4.85,12.8,12.8,0,0,1,.35-2.6c.25-1,.53-1.87.82-2.81.43-1.41.85-2.81,1.16-4.26s.75-2.69,1-4.07A20.41,20.41,0,0,0,209.87,183.91Zm-4,6.31c-.13.48-.69.51-1.09.66-.67.25-1.38.37-2.07.56a25,25,0,0,1-2.58.5c-.74.12-1.48.29-2.21.39a25,25,0,0,1-3,.29,3.66,3.66,0,0,1-2.59-.58c-.49-.45.18-1.23.68-.78s1.66.35,2.31.31c.85,0,1.68-.17,2.53-.27.67-.09,1.35-.26,2-.36a18.56,18.56,0,0,0,2.21-.38c.65-.2,1.33-.31,2-.52.22-.06.42-.16.64-.22l.07,0a.42.42,0,0,1,.39-.21,1.2,1.2,0,0,1,.46.07A.52.52,0,0,1,205.85,190.22Zm-7.9,7a32.67,32.67,0,0,0,5.49-.66.47.47,0,0,1,.69-.27.24.24,0,0,0,.12,0,.49.49,0,0,1,.38.34l0,.07a.5.5,0,0,1-.32.65,29.25,29.25,0,0,1-6.32.87,16.36,16.36,0,0,1-6-.28c-.63-.2-.43-1.22.19-1A15.6,15.6,0,0,0,198,197.18Zm7.35-10.45c-1.64,1.11-3.75,1.28-5.63,1.69-1.12.25-2.3.36-3.45.51a32,32,0,0,1-3.68.28c-.67,0-.74-1-.08-1a28.52,28.52,0,0,0,3.69-.29c1.1-.15,2.23-.24,3.32-.47,1.73-.38,3.75-.53,5.27-1.55C205.28,185.5,205.85,186.36,205.3,186.73Zm-14-1.5c2.25,0,4.51.14,6.77,0a14.27,14.27,0,0,0,6.35-1.48c.57-.33,1.15.52.58.85-4.07,2.31-9.13,1.64-13.61,1.63C190.75,186.25,190.67,185.23,191.34,185.23Zm.86,15h0l.15,0a5.32,5.32,0,0,0,.56.06,16.28,16.28,0,0,0,1.71-.05c.86,0,1.72-.19,2.59-.27a32.22,32.22,0,0,0,3.53-.49,9.25,9.25,0,0,0,1.73-.49,2,2,0,0,0,1-.64c.38-.55,1.15.14.78.68-.67.93-2.15,1.21-3.19,1.43a33.63,33.63,0,0,1-3.85.54c-1,.09-2,.25-3,.29a10.06,10.06,0,0,1-1.82,0,1.28,1.28,0,0,1-1-.46C191,200.24,191.84,199.68,192.2,200.18Zm-.31,2.63a3.07,3.07,0,0,0,.76.05c.46,0,.93,0,1.39,0,1.2-.06,2.39-.16,3.59-.29A31.28,31.28,0,0,0,201,202a6.23,6.23,0,0,0,1.12-.32l.15-.06.07,0c.17-.41.83-.54.95,0,.18.84-.84,1.14-1.47,1.29a26.91,26.91,0,0,1-3.59.61c-1.33.16-2.66.29-4,.34a11,11,0,0,1-2.5,0A.51.51,0,0,1,191.89,202.81Zm12.75,2a1.45,1.45,0,0,1-.78.36c-.81.2-1.65.28-2.46.46a33.69,33.69,0,0,1-4.44.83c-1.48.13-3,.13-4.43.13-.67,0-.74-1-.07-1,1.24,0,2.49,0,3.73-.07a25.74,25.74,0,0,0,3.69-.58c.87-.19,1.73-.39,2.62-.52.31-.05.62-.1.93-.18l.29-.07a.42.42,0,0,1,.54-.25C204.67,204.06,205,204.47,204.64,204.85ZM206,193.32c-.11.28-.55.4-.8.48-.88.3-1.78.54-2.68.79a24.86,24.86,0,0,1-4.52.78c-1.59.1-3.16,0-4.75,0-.66,0-.74-1-.07-1a38,38,0,0,0,7.61-.41c1-.2,2-.48,2.94-.77l1-.3.31-.1a.41.41,0,0,1,.41-.24C205.84,192.55,206.17,192.84,206,193.32Z"/><path class="cls-1" d="M186.58,183.44H185c-.13.84,0,1.86-.15,2.74a13.14,13.14,0,0,0,2.18-.43A17.05,17.05,0,0,0,186.58,183.44Zm4.29,30.66a8.29,8.29,0,0,1-1.86-.18,1.07,1.07,0,0,0,.48.61C189.91,214.76,191,214.74,190.87,214.1Z"/><path class="cls-1" d="M186.05,182.11c-.48-.88-1.11-1.44-2.1-1.12a4,4,0,0,0-2.42,3.66,2,2,0,0,0,.93,1.88c.22.13.61.34.81.28s.22-.13.32-.33c.48-1.1.12-2.38.38-3.53a.51.51,0,0,1,.63-.38.43.43,0,0,1,.36-.17h1.23A1.88,1.88,0,0,0,186.05,182.11Zm23.09,25.49a.5.5,0,0,1-.08.14,2.22,2.22,0,0,1-1.36.59c-.62.11-1.25.16-1.88.21-1.78.15-3.54.49-5.31.75a52,52,0,0,1-5.68.64,21.12,21.12,0,0,0-3.07.21,4.15,4.15,0,0,1,1.73,2.06,4.24,4.24,0,0,1-.58,4.63c2.88,0,5.77.21,8.66.07s6.37-.43,8.71-2.38a5.12,5.12,0,0,0,1.81-3.38C212.28,209.47,211.09,207.21,209.14,207.6Z"/><path class="cls-1" d="M212.28,208a3.25,3.25,0,0,0-3.5-1.39.39.39,0,0,0-.34.3.48.48,0,0,0-.17.13l-.13.1h0A.73.73,0,0,0,208,207a12.79,12.79,0,0,1-.06-7.38c.38-1.4.84-2.77,1.25-4.17s.67-2.81,1.05-4.21a18.46,18.46,0,0,0,.74-4c0-.68,0-1.37-.07-2a25.68,25.68,0,0,0-.45-4.54c-.43-2.12-1.55-4.58-4.12-4.27a.56.56,0,0,0-.31.14,76.41,76.41,0,0,0-14,1.78c-1.11.22-2.21.39-3.33.58-.57.1-1.14.2-1.71.32a11.91,11.91,0,0,1-1.32.28,14.06,14.06,0,0,0-1.68.29c-.36.07-1.14.13-1.32.55a.35.35,0,0,0,0,.13,5.49,5.49,0,0,0-2.2,4.2,3,3,0,0,0,1.13,2.6,2.14,2.14,0,0,0,2.27.42l.16-.08c.84-.65,2-.5,3-.78a28.68,28.68,0,0,1,0,3.47,37,37,0,0,1-.61,4.68c-.49,3-1.06,5.94-1.45,8.93a37,37,0,0,0-.39,7.86,9,9,0,0,0,.86,3.35,5.16,5.16,0,0,0,5.81,2.68.51.51,0,0,0,.37.13c2.93-.14,5.88.13,8.83.07,3.13-.08,6.53-.33,9.32-1.9a6.4,6.4,0,0,0,3.2-4.46A4.87,4.87,0,0,0,212.28,208Zm-27.67-25.43a.51.51,0,0,0-.63.38c-.26,1.15.09,2.42-.38,3.53-.09.19-.15.27-.32.33s-.6-.16-.81-.28a2,2,0,0,1-.93-1.88A4,4,0,0,1,184,181c1-.33,1.62.23,2.1,1.12a3,3,0,0,1,.15.31H185A.36.36,0,0,0,184.61,182.59Zm.18,3.59c.17-.89,0-1.9.15-2.74h1.63a14.18,14.18,0,0,1,.39,2.3A12.63,12.63,0,0,1,184.79,186.18Zm6.68,30.44a4.06,4.06,0,0,1-4.7-1.41c-1.33-1.91-1.21-4.55-1.1-6.77a75.54,75.54,0,0,1,1.08-8.85c.63-3.74,1.46-7.46,1.41-11.26a23.31,23.31,0,0,0-.45-4.48,6.28,6.28,0,0,0-1.55-3.32l-.08-.07.16,0c2.15-.49,4.33-.78,6.49-1.21a72.89,72.89,0,0,1,13.73-1.68.45.45,0,0,0,.36-.15c1.15,0,1.84.9,2.27,2a14.7,14.7,0,0,1,.78,4.56,20.5,20.5,0,0,1-.05,4.89c-.25,1.37-.71,2.7-1,4.07s-.72,2.85-1.16,4.26c-.29.94-.57,1.86-.82,2.81a12.61,12.61,0,0,0-.35,2.6,13,13,0,0,0,.58,4.84h0c-.6.08-1.2.11-1.8.17-.32,0-.63.08-.95.12a.75.75,0,0,0,.05-.58c-.15-.56-.92-.36-1,.13l-.23.13a7,7,0,0,1-1.09.37,26.52,26.52,0,0,1-2.62.55,43.68,43.68,0,0,1-7.41.31.46.46,0,0,0-.45.56,5.73,5.73,0,0,0-1.51.46.56.56,0,0,0-.31.48,3.36,3.36,0,0,0-1.69,2c-.38,1.23-.19,2.92,1.18,3.44,1.09.41,2.93-.13,2.63-1.59a.52.52,0,0,0-.16-.29.55.55,0,0,0-.53-.61A10,10,0,0,1,190,213l-.61-.08-.2-.05a.49.49,0,0,0-.18-.14,3,3,0,0,1,.14-.5c.25-.66.91-1.42,1.7-1.33s1.24.8,1.57,1.39C193.18,213.71,193.12,215.83,191.47,216.62Zm-2.46-2.7a7.74,7.74,0,0,0,1.86.18c.08.64-1,.66-1.38.43A1,1,0,0,1,189,213.92Zm23.07-2.78a5.12,5.12,0,0,1-1.81,3.38c-2.34,1.94-5.81,2.24-8.71,2.38s-5.78-.1-8.66-.07a4.63,4.63,0,0,0-1.15-6.69,22.85,22.85,0,0,1,3.07-.21,54.53,54.53,0,0,0,5.68-.64c1.76-.26,3.53-.6,5.31-.75.63-.06,1.26-.1,1.88-.21a2.19,2.19,0,0,0,1.36-.59.5.5,0,0,0,.08-.14C211.09,207.21,212.28,209.47,212.08,211.14Z"/><path class="cls-1" d="M204.45,183.77a14.24,14.24,0,0,1-6.35,1.48c-2.25.11-4.51,0-6.77,0-.67,0-.58,1,.08,1,4.48,0,9.53.68,13.6-1.63C205.6,184.29,205,183.44,204.45,183.77Zm.28,2.11c-1.51,1-3.53,1.17-5.27,1.55-1.09.23-2.22.33-3.32.47a28.35,28.35,0,0,1-3.68.28c-.67,0-.59,1,.07,1a30.09,30.09,0,0,0,3.68-.29c1.15-.15,2.33-.26,3.45-.5,1.89-.41,4-.58,5.63-1.69A.51.51,0,0,0,204.73,185.88Zm.84,3.78a1.2,1.2,0,0,0-.46-.07.42.42,0,0,0-.39.21l-.07,0c-.21.06-.42.16-.64.22-.65.21-1.33.32-2,.52a16.19,16.19,0,0,1-2.21.38c-.67.1-1.35.26-2,.36-.84.11-1.68.22-2.53.27-.65,0-1.78.18-2.31-.31s-1.17.33-.68.78a3.76,3.76,0,0,0,2.59.58,27.2,27.2,0,0,0,3-.29c.74-.1,1.48-.27,2.21-.39a20.27,20.27,0,0,0,2.58-.5c.7-.2,1.4-.31,2.08-.56.39-.15.95-.18,1.08-.66A.45.45,0,0,0,205.57,189.66Zm-.18,2.88a.41.41,0,0,0-.41.24l-.31.1-1,.3a29.53,29.53,0,0,1-2.94.77,37.23,37.23,0,0,1-7.61.41c-.67,0-.58,1,.07,1,1.59,0,3.16.07,4.75,0a23.12,23.12,0,0,0,4.52-.78c.9-.25,1.8-.49,2.68-.79.25-.08.69-.2.8-.48C206.17,192.84,205.84,192.55,205.39,192.54Zm-.73,4.14,0-.07a.49.49,0,0,0-.38-.33.16.16,0,0,1-.12,0,.46.46,0,0,0-.69.27,32.67,32.67,0,0,1-5.49.66,15.55,15.55,0,0,1-5.77-.27c-.62-.2-.82.82-.19,1a16.36,16.36,0,0,0,6,.28,29.25,29.25,0,0,0,6.32-.87A.51.51,0,0,0,204.66,196.68Zm-1.16,1.66a2.1,2.1,0,0,1-1,.64,11,11,0,0,1-1.74.49,32.22,32.22,0,0,1-3.53.49c-.87.08-1.72.22-2.59.27-.56,0-1.14.06-1.71.05l-.56-.06-.15,0h0c-.36-.49-1.17.07-.82.62a1.26,1.26,0,0,0,1,.46,10,10,0,0,0,1.82,0c1,0,2-.2,3-.29a35.65,35.65,0,0,0,3.85-.54c1-.22,2.52-.5,3.19-1.43C204.66,198.48,203.88,197.79,203.5,198.34Zm-.24,3.26c-.12-.52-.78-.39-.95,0l-.07,0-.15.06A7.49,7.49,0,0,1,201,202a31.28,31.28,0,0,1-3.34.5c-1.19.13-2.39.23-3.59.29-.46,0-.93,0-1.39,0a3.1,3.1,0,0,1-.76-.05.51.51,0,0,0-.19,1,10.45,10.45,0,0,0,2.5,0c1.33-.07,2.67-.19,4-.34a27.47,27.47,0,0,0,3.59-.61C202.41,202.73,203.44,202.45,203.26,201.6Zm1,2.33a.42.42,0,0,0-.54.25l-.29.07c-.31.08-.63.13-.93.18-.89.13-1.75.33-2.62.52a28.89,28.89,0,0,1-3.69.58c-1.24.08-2.5.07-3.74.07-.66,0-.58,1,.08,1,1.47,0,3,0,4.42-.13a33.83,33.83,0,0,0,4.45-.83c.81-.18,1.65-.26,2.46-.46a1.45,1.45,0,0,0,.78-.36C205,204.47,204.67,204.06,204.27,203.93Z"/><path class="cls-1" d="M199.09,37.12a3,3,0,0,0-1.11-.69c-.4-.18-.81-.32-1.2-.5s-.87-.53-1.32-.76a9.51,9.51,0,0,0-.1,2.72,14.62,14.62,0,0,0,.11,2.48,10.63,10.63,0,0,0,1.52-.83,5.7,5.7,0,0,0,2-1.71C199.06,37.66,199.25,37.32,199.09,37.12Zm15.57-19.64a10.49,10.49,0,0,0-9.75-6.86,9.86,9.86,0,0,0-3.49.52A11.84,11.84,0,0,0,198.13,13a20.59,20.59,0,0,0-2.52,2.42,4.15,4.15,0,0,0-1.16,2,7.15,7.15,0,0,0-.32,1.92c-.16.93-.27,1.89-.35,2.84a14,14,0,0,0,.08,3.83,6.62,6.62,0,0,0,1.47,3.25A7.87,7.87,0,0,0,199,31.48a17.68,17.68,0,0,0,4,.63,36.29,36.29,0,0,0,3.89.13,9.18,9.18,0,0,0,6.71-2.78C216.37,26.26,216,21.23,214.66,17.48Zm-11.78,1.81a3.32,3.32,0,0,1-1.95,1.57,1.68,1.68,0,0,1-2-1.16c-.14-.37.21-.64.54-.62h0a.45.45,0,0,1,.36.35s0,0,0-.06a.41.41,0,0,1,.08.25c.52.76,1.54.07,2-.6a.54.54,0,0,1,.37-.39A.48.48,0,0,1,202.88,19.29Zm5.47,6.53c-.23.89-.74,2.05-1.75,2.28A2.21,2.21,0,0,1,204,26.64c-.16-.59.72-.9.89-.31a1.23,1.23,0,0,0,1.64.81,2.24,2.24,0,0,0,.92-1.5C207.58,25.06,208.51,25.24,208.35,25.82Zm2.91-7.59c-.25.76-.57,1.57-1.41,1.82a1.93,1.93,0,0,1-2.21-1.2c-.22-.56.66-.87.88-.31.16.39.79.86,1.21.56a1.38,1.38,0,0,0,.44-.6.39.39,0,0,1,.09-.48l.18-.19C210.74,17.54,211.43,17.75,211.26,18.23Zm-1,19.82c-.06-.46-.51-.41-.88-.36a10.78,10.78,0,0,1-1.69.13c-.73,0-1.46,0-2.19,0a6.41,6.41,0,0,0,1.06,1.56c.42.49.75,1.06,1.16,1.55.2.25.68.85,1,.47a6.55,6.55,0,0,0,.86-1.56A3.88,3.88,0,0,0,210.25,38.05ZM195.71,8.4l-.43-.26a9.22,9.22,0,0,0-2.51-1.05A3.73,3.73,0,0,0,191.44,7a.19.19,0,0,0-.1,0v.1a4.1,4.1,0,0,0,.56,1.33c.41.79.78,2.14,1.61,2.67a3.25,3.25,0,0,1,.6-1,14.54,14.54,0,0,1,1.27-1.33,3.06,3.06,0,0,0,.37-.35l0,0Zm8.53-5.86a2.62,2.62,0,0,0-.65-1c-.23-.18-.46.1-.59.27a7.52,7.52,0,0,0-1.11,2.34,4.7,4.7,0,0,0-.24,1.23,1.09,1.09,0,0,0,0,.19.42.42,0,0,1,.2,0c.8,0,1.6-.13,2.4-.09a6.26,6.26,0,0,0,1.56,0C205.33,4.43,204.69,3.54,204.24,2.54ZM215.33,4.4a10,10,0,0,0-2.14.58,6.72,6.72,0,0,0-2.14,1.11c.15.13.3.27.43.36l.84.69c.37.32.77.64,1.12,1a3.06,3.06,0,0,1,.51.57c.25-.2.55-.28.82-.5a2.22,2.22,0,0,0,.46-1.25A6.22,6.22,0,0,0,215.33,4.4Zm-25,25.65c-.21-.3-.44-.59-.66-.89a5,5,0,0,1-.77-1.29c-.7.21-1,1.35-1.39,1.91-.27.4-.55.79-.78,1.21a2,2,0,0,0-.37,1c0,.19.4.22.63.22a5.77,5.77,0,0,0,1.1-.1,14.27,14.27,0,0,0,2.51-1.24.62.62,0,0,1,0-.18C190.66,30.53,190.38,30.16,190.3,30.05Zm-1.45-12.49c-.26-.42-.94-.11-1.29,0s-.93.4-1.41.55-.91.22-1.34.38a1.1,1.1,0,0,0-.43.22s0,0,0,0a2.17,2.17,0,0,0,.31.37c.39.36,3.58,2.82,3.84,2.3a4.29,4.29,0,0,0,.27-1.59c.06-.7.14-1.41.25-2.1A.48.48,0,0,1,188.85,17.56Zm29.28,17.52a5.71,5.71,0,0,1-.09-1.24,3.42,3.42,0,0,0-.1-1.24s0,0-.05,0a1,1,0,0,0-.25.07,4.6,4.6,0,0,0-1.4,1.27c-.18.21-.36.44-.52.67l-.11.19a.66.66,0,0,1-.05.15,8.75,8.75,0,0,0,1.3,1,3.94,3.94,0,0,0,1.56.67A13.3,13.3,0,0,0,218.13,35.08Zm2.69-21.64c-.58,0-1.5-.18-2,.22a.44.44,0,0,1-.19.1,13.4,13.4,0,0,1,.79,1.78,5.76,5.76,0,0,1,.31.78.39.39,0,0,1,.15.16c.1.16.34,1,.53,1,0,0,.14-.14.18-.18a2.34,2.34,0,0,0,.2-.27,4,4,0,0,0,.3-.53c.3-.6.78-1.12,1.1-1.72a6.46,6.46,0,0,0,.59-1.47A7.38,7.38,0,0,0,220.82,13.44Zm1.53,11.69a.44.44,0,0,1-.55-.2,12.91,12.91,0,0,1-.78,2.62c-.09.22-.36.77-.2,1a.8.8,0,0,0,.48.25,13.35,13.35,0,0,0,2.09.22,7.63,7.63,0,0,1,1,.09A6.25,6.25,0,0,0,222.35,25.13Z"/><path class="cls-1" d="M216.13,3.73a.49.49,0,0,0-.48-.31,11,11,0,0,0-2.89.72,7.21,7.21,0,0,0-2.49,1.4.37.37,0,0,0-.11.44.49.49,0,0,0,0,.57.35.35,0,0,0,0,.08l.25.17h0l.45.34c.24.17.46.36.69.56l.95.81c.08.08.21.18.32.29a14.77,14.77,0,0,1,1.25.9.39.39,0,0,0,.35-.16c.28-.37.79-.46,1.11-.79a3.22,3.22,0,0,0,.59-1.5A6.78,6.78,0,0,0,216.13,3.73ZM215.25,7c-.07.36-.16,1-.47,1.25s-.56.3-.81.5a3.06,3.06,0,0,0-.51-.57c-.35-.35-.75-.66-1.12-1s-.56-.47-.85-.69c-.13-.09-.27-.23-.42-.36A6.82,6.82,0,0,1,213.21,5a10.41,10.41,0,0,1,2.14-.58A7,7,0,0,1,215.25,7ZM190.78,29.56c-.44-.62-.88-1.24-1.26-1.89-.17-.25-.34-.49-.5-.74a.34.34,0,0,0-.11.07.49.49,0,0,0-.3,0c-1,.23-1.4,1.52-1.91,2.3s-1.37,1.78-1.31,2.85,1.5,1.05,2.25,1a4.22,4.22,0,0,0,1.41-.34c.67-.31,1.24-.8,1.93-1.05a.44.44,0,0,0,.3-.41.39.39,0,0,0,.15-.2,1.23,1.23,0,0,0,.08-.37C191.27,30.34,191.05,29.93,190.78,29.56Zm-.17,1.13a.38.38,0,0,0,0,.18,14.63,14.63,0,0,1-2.51,1.24,5.92,5.92,0,0,1-1.1.1c-.24,0-.62,0-.63-.22a2,2,0,0,1,.37-1c.23-.42.51-.81.78-1.22s.69-1.69,1.39-1.9a5.13,5.13,0,0,0,.77,1.29c.23.29.45.58.66.89C190.38,30.16,190.66,30.53,190.61,30.69ZM195.12,7a8.25,8.25,0,0,0-3.29-.94c-.63-.06-1.36.15-1.43.88A3.51,3.51,0,0,0,191,8.74c.63,1.21,1.1,2.83,2.45,3.39a20.11,20.11,0,0,1,1.47-1.45c.21-.24.43-.47.65-.69.4-.43,1.19-.9,1.19-1.55S195.64,7.27,195.12,7Zm.63,1.49a3.06,3.06,0,0,1-.37.35,14.54,14.54,0,0,0-1.27,1.33,3.25,3.25,0,0,0-.6,1c-.83-.53-1.2-1.88-1.61-2.67a3.89,3.89,0,0,1-.56-1.33V7a.25.25,0,0,1,.1,0,3.73,3.73,0,0,1,1.33.11,9.35,9.35,0,0,1,2.51,1.05,3.07,3.07,0,0,1,.43.26l.06.06Zm11.19-3c-.39-.84-.91-1.6-1.38-2.4-.28-.48-.48-1-.74-1.52A1.85,1.85,0,0,0,203.67.53a1.4,1.4,0,0,0-1.33.57,8.22,8.22,0,0,0-1.42,3,3.14,3.14,0,0,0,0,2.16,14.61,14.61,0,0,1,2,.08h.26a11.77,11.77,0,0,1,1.33,0,4.54,4.54,0,0,0,2.16-.24A.48.48,0,0,0,206.94,5.51Zm-2.67-.11c-.81,0-1.61.08-2.4.09a.42.42,0,0,0-.2,0c0-.06,0-.12,0-.19a4.33,4.33,0,0,1,.24-1.23A7.52,7.52,0,0,1,203,1.77c.13-.17.35-.45.59-.27a2.62,2.62,0,0,1,.65,1c.44,1,1.08,1.89,1.59,2.84A5.9,5.9,0,0,1,204.27,5.4ZM189.43,16.78c-.91-.91-2.62.12-3.6.47s-3.13.62-2.18,2.11a4.11,4.11,0,0,0,1,.95l1.45,1c.72.5,1.71,1.33,2.66,1,.68-.21.82-1.09.88-1.69.12-1.14.21-2.29.42-3.41C190.16,16.88,189.73,16.67,189.43,16.78Zm-.63,3.06a4.51,4.51,0,0,1-.27,1.59c-.26.52-3.45-1.94-3.84-2.3a3.57,3.57,0,0,1-.31-.37s0,0,0,0a.93.93,0,0,1,.43-.22c.44-.16.9-.24,1.34-.38s.94-.37,1.41-.55,1-.44,1.29,0a.67.67,0,0,0,.2.18C188.94,18.43,188.86,19.14,188.8,19.84ZM224.23,26a6.34,6.34,0,0,0-1.2-1.53c-.21-.19-.54-.52-.85-.39a.55.55,0,0,0-.34.31.46.46,0,0,0-.9,0,9.88,9.88,0,0,1-.37,1.78c-.16.49-.4.94-.56,1.43a1.44,1.44,0,0,0,.56,1.88,5,5,0,0,0,2.14.39,5,5,0,0,1,2,.28.47.47,0,0,0,.67-.46A7.86,7.86,0,0,0,224.23,26Zm-.83,3a13.23,13.23,0,0,1-2.09-.22.78.78,0,0,1-.48-.25c-.16-.23.11-.78.2-1a12.72,12.72,0,0,0,.78-2.62.42.42,0,0,0,.55.2,6.41,6.41,0,0,1,2,4C224,29,223.71,29,223.4,29Zm.18-16.45a5.89,5.89,0,0,0-2.83-.06c-.79.07-1.77-.18-2.43.38a.49.49,0,0,0-.14.57.51.51,0,0,0-.37.74,9.89,9.89,0,0,1,.59,1.28c.11.23.2.47.29.71s.13.25.19.37l0-.05a.25.25,0,0,0,0,.08l.23.48.07,0c.25.47.37,1,.88,1.24s1.15-.27,1.46-.7c.43-.6.81-1.24,1.19-1.86a7.46,7.46,0,0,0,1.1-2.71A.47.47,0,0,0,223.58,12.56Zm-1.35,2.23c-.32.6-.79,1.11-1.1,1.71-.09.18-.2.36-.3.53l-.2.27c0,.05-.22.17-.18.19-.2-.06-.43-.87-.53-1a.46.46,0,0,0-.15-.16,3.64,3.64,0,0,0-.31-.77,16.77,16.77,0,0,0-.79-1.79.35.35,0,0,0,.19-.1c.48-.4,1.39-.18,2-.22a7.89,7.89,0,0,1,2-.13A7.15,7.15,0,0,1,222.23,14.79ZM219.07,35a8.43,8.43,0,0,1-.1-1.74,1.93,1.93,0,0,0-.41-1.4,1.12,1.12,0,0,0-1.06-.18,4.29,4.29,0,0,0-1.93,1.53c-.24.29-.88.91-.93,1.4a.48.48,0,0,0,0,.71c1.06,1,2.69,2.36,4.28,2.18a.46.46,0,0,0,.42-.38A6.66,6.66,0,0,0,219.07,35Zm-2.23.9a8.26,8.26,0,0,1-1.3-1,.27.27,0,0,0,.05-.15l.11-.19c.16-.23.34-.45.52-.67a4.51,4.51,0,0,1,1.41-1.27.84.84,0,0,1,.24-.07s.06,0,.06,0a3.22,3.22,0,0,1,.09,1.24,5.18,5.18,0,0,0,.09,1.24,9,9,0,0,1,.28,1.52A3.92,3.92,0,0,1,216.84,35.94Zm-6.66.83a4.37,4.37,0,0,0-1.76.11,9.9,9.9,0,0,1-1.54,0,12.83,12.83,0,0,0-1.64,0,.44.44,0,0,0-.41.52.43.43,0,0,0-.27.57A7.09,7.09,0,0,0,206,40.14,18.44,18.44,0,0,0,207.42,42a1.41,1.41,0,0,0,1.67.31,4.25,4.25,0,0,0,1.28-1.9C210.91,39.35,211.92,37.26,210.18,36.77Zm-.58,3.07a6.55,6.55,0,0,1-.86,1.56c-.35.38-.83-.21-1-.47-.42-.5-.74-1.06-1.16-1.55a6.61,6.61,0,0,1-1.06-1.56c.74,0,1.47,0,2.19,0a10.6,10.6,0,0,0,1.69-.13c.37,0,.82-.1.88.36A3.88,3.88,0,0,1,209.6,39.84ZM200,36.9c-.11-.46-.62-.77-1-1a12.35,12.35,0,0,0-1.53-.69c-.66-.27-1.21-.72-1.86-1a.39.39,0,0,0-.35,0,.41.41,0,0,0-.57.22,7.64,7.64,0,0,0-.31,3.26,14.62,14.62,0,0,0,.29,3.49.49.49,0,0,0,.6.29,10.92,10.92,0,0,0,2.4-1.24,6,6,0,0,0,2.18-2.11A1.77,1.77,0,0,0,200,36.9Zm-1.06,1a5.61,5.61,0,0,1-2,1.71,11.72,11.72,0,0,1-1.52.83,14.71,14.71,0,0,1-.11-2.48,9.15,9.15,0,0,1,.1-2.72c.45.23.87.53,1.32.75s.8.33,1.2.51a2.85,2.85,0,0,1,1.11.69C199.25,37.32,199.06,37.66,199,37.85Zm3.35-19.21a.55.55,0,0,0-.37.39c-.47.66-1.49,1.35-2,.6a.41.41,0,0,0-.08-.25s0,0,0,.06a.46.46,0,0,0-.36-.35h0a.48.48,0,0,0-.54.62,1.68,1.68,0,0,0,2,1.16,3.26,3.26,0,0,0,1.95-1.58A.47.47,0,0,0,202.31,18.64Zm8.14-.81-.18.19a.4.4,0,0,0-.09.48,1.33,1.33,0,0,1-.44.6c-.42.3-1.05-.17-1.21-.56-.22-.56-1.11-.25-.88.31a1.91,1.91,0,0,0,2.21,1.2c.84-.25,1.16-1.07,1.41-1.82C211.43,17.75,210.74,17.54,210.45,17.83Zm-3,7.81a2.24,2.24,0,0,1-.92,1.5,1.23,1.23,0,0,1-1.64-.81c-.17-.59-1.06-.28-.89.31a2.21,2.21,0,0,0,2.62,1.46c1-.23,1.52-1.39,1.75-2.28C208.51,25.24,207.58,25.06,207.43,25.64Z"/><path class="cls-1" d="M215.88,18.26a11.51,11.51,0,0,0-3.13-5.42A11.86,11.86,0,0,0,201.83,10a13.09,13.09,0,0,0-5.78,3.63c-1.07,1.06-2.66,2.55-2.54,4.19a.23.23,0,0,0,0,.11,28.91,28.91,0,0,0-.71,6.14,9.18,9.18,0,0,0,1.46,5.33,9,9,0,0,0,5.7,3.25,23.6,23.6,0,0,0,3.93.41,27.49,27.49,0,0,0,3.85,0,9.82,9.82,0,0,0,6.47-3,9.61,9.61,0,0,0,2.33-5.64A17.32,17.32,0,0,0,215.88,18.26Zm-2.31,11.2a9.18,9.18,0,0,1-6.71,2.78,36.12,36.12,0,0,1-3.89-.13,17.68,17.68,0,0,1-4-.63,7.87,7.87,0,0,1-3.67-2.15,6.53,6.53,0,0,1-1.47-3.25,14.45,14.45,0,0,1-.09-3.83c.09-.94.2-1.9.36-2.84a6.77,6.77,0,0,1,.32-1.92,4.08,4.08,0,0,1,1.16-2A19.79,19.79,0,0,1,198.13,13a11.78,11.78,0,0,1,3.3-1.89,9.58,9.58,0,0,1,3.49-.52,10.49,10.49,0,0,1,9.75,6.86C216,21.23,216.37,26.26,213.57,29.46Z"/><path class="cls-1" d="M390.47,88.5v0c-.11.12-.23.24-.33.37-.27.3-.53.62-.81.92-.48.53-1,1-1.54,1.48a3.14,3.14,0,0,0-1.09,1.67c-.07.64.56,1.3,1,1.68l.18.16a2,2,0,0,1,0-.81,6.52,6.52,0,0,1,1.34-2.68c.48-.55,1.23-1,1.53-1.72C390.8,89.33,390.51,88.79,390.47,88.5Z"/><path class="cls-1" d="M395.3,95.77c0-.45-.07-.91-.09-1.37-.26.31-.55.61-.84.9a8.89,8.89,0,0,1-2.32,1.83c-1.81.8-3.53-.39-4.85-1.58a4.36,4.36,0,0,1-1.45-2,2.55,2.55,0,0,1,.57-2.19,18.7,18.7,0,0,1,1.83-1.84c.31-.3.58-.63.87-1,.1-.12.21-.22.31-.33a16,16,0,0,0-3.72.2A7.09,7.09,0,0,0,382.43,90a6,6,0,0,0-1.82,3.19,20.22,20.22,0,0,0-.19,4.47.52.52,0,0,1-.18.4,12.37,12.37,0,0,1-2.68,5.5c-1.6,2-3.39,3.78-5.15,5.58-1,1-2,1.89-2.93,2.92a13.13,13.13,0,0,1-2.26,2.39,3.53,3.53,0,0,1-3.18.2,8.31,8.31,0,0,0-3-.61,5.8,5.8,0,0,0-4.85,2.81,7.9,7.9,0,0,0-.49,3.68c0,.7.14,1.38.17,2.08,0,.38,0,.75.08,1.13a18.21,18.21,0,0,1,2.59-3.21c1.17-1.06,2.76-1.88,4.27-.94a9.12,9.12,0,0,1,2.15,2.1,16.33,16.33,0,0,1,1.85,2.38c1.09,2-.63,3.93-1.6,5.65l.6,0a12.09,12.09,0,0,0,4.85-1.34,3.79,3.79,0,0,0,1.65-1.57,4.38,4.38,0,0,0-.17-3.22c-.41-1.13-1.07-2.32-.93-3.57a4.85,4.85,0,0,1,1.43-2.65c1.93-2.09,3.87-4.17,5.71-6.31,1-1.14,1.95-2.29,2.91-3.45.79-1,1.52-2,2.38-2.87a4.81,4.81,0,0,1,2.51-1.51,20,20,0,0,1,3.55,0,4.64,4.64,0,0,0,3.19-1.32,7.11,7.11,0,0,0,1.87-2.69A8,8,0,0,0,395.3,95.77ZM385,102.54a.41.41,0,0,1-.09.1,16.4,16.4,0,0,0-2.22,2.11c-.68.73-1.42,1.39-2.11,2.1-1.43,1.46-2.73,3-4.06,4.59-.67.79-1.4,1.53-2,2.33s-1.29,1.68-1.92,2.53c-.49.67-1,1.34-1.53,2-.32.38-1,.94-1,1.47a.43.43,0,0,1-.57.39.46.46,0,0,1-.55-.2c-.28-.41-.56-.82-.86-1.23a4.49,4.49,0,0,0-.82-1,7.87,7.87,0,0,0-.95-.59l-.4-.22c-.07,0-.32-.1-.11-.06a.52.52,0,0,1,.08-1h0a9.14,9.14,0,0,1,1.41-.59,4.15,4.15,0,0,0,1.3-.76c.73-.63,1.42-1.32,2.17-1.93.51-.42,1.08.44.58.86-.8.64-1.5,1.38-2.29,2a4.21,4.21,0,0,1-1.27.73c-.22.09-.45.15-.67.24.26.15.51.31.76.48a5.36,5.36,0,0,1,1,1.11l.53.72a9.36,9.36,0,0,1,.67-.85c.54-.65,1.06-1.29,1.57-2,.67-.9,1.31-1.82,2-2.68s1.44-1.64,2.15-2.47c1.4-1.64,2.77-3.32,4.3-4.83.74-.74,1.49-1.46,2.2-2.22a14.69,14.69,0,0,1,2-1.86c-.38-.29-.88-.5-1.23-.72a4.25,4.25,0,0,1-.91-.72,5.24,5.24,0,0,0-.89-.93c-.55-.37-.1-1.3.46-.93a6.73,6.73,0,0,1,1.11,1.09,4.2,4.2,0,0,0,.89.68,4.87,4.87,0,0,1,1.85,1.41A.55.55,0,0,1,385,102.54Z"/><path class="cls-1" d="M362.25,120.45c-1.31-.7-2.56.32-3.43,1.26a25.42,25.42,0,0,0-2.06,2.68,4.94,4.94,0,0,1,.52.13c.09,0,.3.1.39.06a3.58,3.58,0,0,0,1.1-1c.36-.39.69-.78,1.07-1.14a3.37,3.37,0,0,1,3.13-1.13,3.22,3.22,0,0,1,.55.18A4.24,4.24,0,0,0,362.25,120.45Zm34-25.94c0,.19,0,.38,0,.57a10.5,10.5,0,0,1-.23,3.58,8.3,8.3,0,0,1-1.45,3,7.33,7.33,0,0,1-2.67,2.21,7.06,7.06,0,0,1-3.38.39,5.07,5.07,0,0,0-3.24.41,11.26,11.26,0,0,0-2.13,2.23q-2.82,3.51-5.82,6.88c-1,1.1-2,2.18-3,3.27a8.92,8.92,0,0,0-2,2.49,3.17,3.17,0,0,0,.18,2.28,11.8,11.8,0,0,1,2.45-4c1.38-1.62,2.76-3.25,4.17-4.87,1-1.11,2-2.23,2.94-3.35.85-1,1.61-2,2.55-2.94a5.47,5.47,0,0,1,3.37-1.48,20,20,0,0,0,3.79-.34,6.27,6.27,0,0,0,4.2-4.14A11.36,11.36,0,0,0,396.25,94.51Z"/><path class="cls-1" d="M396.69,92.1a.44.44,0,0,0-.33-.33.55.55,0,0,0-.93.22,2.81,2.81,0,0,0-.08.31.45.45,0,0,0-.16.21,6.47,6.47,0,0,1-1.48,2,8.34,8.34,0,0,1-2,1.65,2.3,2.3,0,0,1-2.09-.11c-.16-.34-.36-.68-.56-1A1.61,1.61,0,0,1,389,93.7a5.48,5.48,0,0,1,1.43-2.22,4.31,4.31,0,0,0,1.34-1.75,2.43,2.43,0,0,0-.19-1.19,2.34,2.34,0,0,1-.06-.7h0v-.07a.46.46,0,0,0-.69-.41.47.47,0,0,0-.55-.16.4.4,0,0,0-.16,0c-.85,0-1.7,0-2.56,0a10.74,10.74,0,0,0-2.25.28,8,8,0,0,0-3.52,1.8,7.09,7.09,0,0,0-2.08,3.43,15.27,15.27,0,0,0-.29,4.53.44.44,0,0,0-.08.21,12.1,12.1,0,0,1-3.44,6.51c-2,2.15-4,4.35-6.11,6.41-.41.4-.84.79-1.22,1.23s-.74.9-1.13,1.33a3.46,3.46,0,0,1-1.17.91,2.74,2.74,0,0,1-1.72-.08c-.54-.15-1.07-.36-1.61-.53a6.14,6.14,0,0,0-1.48-.2,7.45,7.45,0,0,0-2.87.56,5.76,5.76,0,0,0-3.65,3.88,13.8,13.8,0,0,0-.19,3.63c0,.64.13,1.29.17,2a11.83,11.83,0,0,0,.25,1.95.42.42,0,0,0,.29.32.46.46,0,0,0,.76,0l.18,0c.21,0,.41.09.62.14a1.73,1.73,0,0,0,1,0,5.67,5.67,0,0,0,2-1.72,3.82,3.82,0,0,1,2.21-1.52,4,4,0,0,1,2.94,1.66.5.5,0,0,0,.54.19.83.83,0,0,1,.11.15,2.26,2.26,0,0,1,0,2.46c-.47,1-1.13,1.83-1.62,2.78a.51.51,0,0,0,.53.73.49.49,0,0,0,.53.48,15.45,15.45,0,0,0,4.77-1c1.55-.6,3.12-1.6,3.53-3.3a5.88,5.88,0,0,0-.36-3.23.49.49,0,0,0,.22-.34c.37-2.43,2.18-4.23,3.73-6,1.94-2.24,3.87-4.49,5.81-6.72.85-1,1.62-2,2.55-2.93a5.17,5.17,0,0,1,3.71-1.2,11.69,11.69,0,0,0,3.49-.5,6.88,6.88,0,0,0,2.54-1.63,8.86,8.86,0,0,0,2.31-5.06A15,15,0,0,0,396.69,92.1Zm-6.55-3.25.33-.37v0c0,.29.33.83.22,1a8.9,8.9,0,0,1-1.53,1.72A6.46,6.46,0,0,0,387.82,94a1.82,1.82,0,0,0,0,.81c-.05-.06-.12-.1-.18-.16-.42-.39-1.05-1-1-1.68a3.2,3.2,0,0,1,1.09-1.67c.5-.5,1.06-1,1.54-1.48C389.61,89.47,389.86,89.15,390.14,88.85ZM363,121.35a3.36,3.36,0,0,0-3.13,1.13c-.37.36-.71.75-1.07,1.14a3.58,3.58,0,0,1-1.1.95.76.76,0,0,1-.39-.06l-.51-.13a25,25,0,0,1,2.05-2.68c.87-.93,2.12-2,3.43-1.26a4.51,4.51,0,0,1,1.27,1.08Zm9.37,5.42a3.79,3.79,0,0,1-1.65,1.57,12.25,12.25,0,0,1-4.85,1.34l-.6,0c1-1.72,2.69-3.65,1.6-5.65A16.33,16.33,0,0,0,365,121.7a8.75,8.75,0,0,0-2.15-2.1c-1.51-.93-3.1-.12-4.27.94a18.21,18.21,0,0,0-2.59,3.21c0-.38-.06-.75-.08-1.13,0-.69-.14-1.37-.17-2.08a7.9,7.9,0,0,1,.49-3.68,5.79,5.79,0,0,1,4.85-2.81,8.22,8.22,0,0,1,3,.61,3.53,3.53,0,0,0,3.18-.2,12.81,12.81,0,0,0,2.26-2.39c.91-1,2-1.93,2.93-2.92,1.77-1.8,3.55-3.64,5.15-5.58a12.32,12.32,0,0,0,2.68-5.5.52.52,0,0,0,.18-.4,20.85,20.85,0,0,1,.19-4.47A6,6,0,0,1,382.43,90a7.14,7.14,0,0,1,3.18-1.59,16,16,0,0,1,3.72-.2c-.11.11-.21.21-.31.33-.29.32-.55.65-.87,1a16.73,16.73,0,0,0-1.83,1.84,2.55,2.55,0,0,0-.57,2.19,4.36,4.36,0,0,0,1.45,2c1.32,1.18,3.05,2.38,4.85,1.58a8.53,8.53,0,0,0,2.32-1.83c.29-.29.58-.59.84-.9,0,.45.06.91.09,1.37a8.13,8.13,0,0,1-.52,3.45,7.11,7.11,0,0,1-1.87,2.69,4.66,4.66,0,0,1-3.19,1.32,19.14,19.14,0,0,0-3.55,0,4.88,4.88,0,0,0-2.51,1.51c-.85.89-1.59,1.91-2.38,2.87-1,1.16-1.92,2.3-2.91,3.45-1.85,2.14-3.79,4.22-5.71,6.31a4.85,4.85,0,0,0-1.43,2.65c-.14,1.25.52,2.44.93,3.57A4.33,4.33,0,0,1,372.33,126.77Zm23.73-26.16a6.33,6.33,0,0,1-4.2,4.14,20.19,20.19,0,0,1-3.8.34,5.39,5.39,0,0,0-3.37,1.48c-.93.88-1.7,2-2.55,2.94s-2,2.23-2.94,3.35c-1.41,1.62-2.79,3.25-4.17,4.87a11.8,11.8,0,0,0-2.45,4,3.16,3.16,0,0,1-.18-2.28,8.92,8.92,0,0,1,2-2.49c1-1.09,2-2.17,3-3.27q3-3.36,5.82-6.88a10.25,10.25,0,0,1,2.13-2.23,4.94,4.94,0,0,1,3.24-.41,7.06,7.06,0,0,0,3.38-.39,7.33,7.33,0,0,0,2.67-2.21,8.3,8.3,0,0,0,1.45-3,10.5,10.5,0,0,0,.23-3.58c0-.19,0-.39,0-.57A11.27,11.27,0,0,1,396.06,100.61Z"/><path class="cls-1" d="M385.48,101.73a4.89,4.89,0,0,0-1.85-1.41,4.47,4.47,0,0,1-.89-.68,6.36,6.36,0,0,0-1.11-1.09c-.56-.37-1,.56-.46.93a5.24,5.24,0,0,1,.89.93,4.25,4.25,0,0,0,.91.72c.35.22.85.43,1.23.72a16,16,0,0,0-2,1.86c-.71.76-1.46,1.49-2.2,2.22-1.54,1.52-2.9,3.19-4.3,4.83-.71.84-1.47,1.63-2.15,2.47s-1.35,1.79-2,2.68c-.5.68-1,1.32-1.57,2a9.36,9.36,0,0,0-.67.85l-.53-.72a5.58,5.58,0,0,0-1-1.1,7.57,7.57,0,0,0-.76-.49c.22-.09.45-.16.67-.24a4.12,4.12,0,0,0,1.27-.73c.79-.64,1.5-1.39,2.29-2,.51-.41-.06-1.28-.58-.86-.75.61-1.43,1.3-2.17,1.93a4.18,4.18,0,0,1-1.3.77,8.7,8.7,0,0,0-1.41.58h0a.52.52,0,0,0-.08,1c-.2,0,0,0,.11.06l.4.22a7.58,7.58,0,0,1,.95.59,4.59,4.59,0,0,1,.82,1c.3.4.58.81.86,1.22a.45.45,0,0,0,.55.2.42.42,0,0,0,.57-.39c0-.53.68-1.09,1-1.47.53-.63,1-1.29,1.53-2,.63-.86,1.25-1.71,1.92-2.54s1.38-1.54,2-2.33c1.33-1.56,2.63-3.13,4.06-4.59.69-.72,1.43-1.37,2.11-2.09a16.48,16.48,0,0,1,2.22-2.12.47.47,0,0,0,.1-.1A.54.54,0,0,0,385.48,101.73Z"/><path class="cls-1" d="M350.74,32.35h-3.32c.07,1,.15,2,.15,2.94l.11.16h0a1.42,1.42,0,0,0,.22.07,8.17,8.17,0,0,0,.84.14,4.14,4.14,0,0,0,1.36,0,1.2,1.2,0,0,0,.79-1.3c0-.58,0-1.17,0-1.75,0-.1,0-.2,0-.3A.58.58,0,0,1,350.74,32.35Zm.12-1.73a2.1,2.1,0,0,0-.55-1.42c.06.05-.18,0-.25-.05l-.36,0a5.53,5.53,0,0,0-.91,0c-.34,0-1.07.06-1.28.42a.49.49,0,0,1-.22.21c0,.53,0,1.05,0,1.58h3.32a.66.66,0,0,1,.25.05C350.9,31.13,350.89,30.88,350.86,30.62Zm-4.4,2.86a27.59,27.59,0,0,0-3.28.13c-1.83.19-3.72.14-5.56.15h-8.24a3.91,3.91,0,0,1-1-.09c0,.25,0,.51,0,.75,3.43,0,6.87,0,10.3,0,.94,0,1.89,0,2.84-.06a16.44,16.44,0,0,1,2,0c.58,0,1.15.11,1.73.11a2.67,2.67,0,0,0,1.25-.16C346.49,34,346.48,33.75,346.46,33.48Zm-19.24-1.26h-3.33c.08,1,.15,2,.15,2.94a.83.83,0,0,1,.12.16h0a1.42,1.42,0,0,0,.22.07,7.36,7.36,0,0,0,.84.14,4.44,4.44,0,0,0,1.36,0,1.22,1.22,0,0,0,.57-.42.48.48,0,0,1,.21-.65,1.69,1.69,0,0,0,0-.23c0-.58,0-1.17,0-1.75,0-.1,0-.2,0-.3A.63.63,0,0,1,327.22,32.22Z"/><path class="cls-1" d="M356.59,27.71c-.1-1.28-.39-2.89-1.6-3.59a5.07,5.07,0,0,0-2.64-.51c-1.36,0-2.71.07-4.07.15-2.7.17-5.38.3-8.08.34-3,0-6.06,0-9.08,0-2.83,0-5.66.19-8.48,0-1.74-.12-4.77-.6-5,1.83-.09,1,.12,2,.12,3a12.29,12.29,0,0,1-.14,1.82,6,6,0,0,0,0,2,.55.55,0,0,1,0,.22c1.78,0,3.57-.13,5.35-.14-.08-1.07-.17-2.16-.17-3.24a.51.51,0,0,1,.26-.46.47.47,0,0,1,.07-.22,2.48,2.48,0,0,1,2-1,3.91,3.91,0,0,1,2.3.26,2.92,2.92,0,0,1,1,2.08,15,15,0,0,1,.06,2.32.55.55,0,0,1,.28.06h0a1.78,1.78,0,0,0,.73,0h8.84c2.71,0,5.41-.25,8.12-.27-.06-.89-.13-1.79-.13-2.68a.51.51,0,0,1,.26-.46.47.47,0,0,1,.07-.22,2.5,2.5,0,0,1,2-1,3.81,3.81,0,0,1,2.29.27,2.9,2.9,0,0,1,1,2.07,14.55,14.55,0,0,1,.07,1.87c1.52,0,3-.09,4.54-.12A39.4,39.4,0,0,0,356.59,27.71Z"/><path class="cls-1" d="M348,17.82a4.38,4.38,0,0,0-.74-2.2,2,2,0,0,0-1.57-.72,9.87,9.87,0,0,1,.1,2,3.31,3.31,0,0,1,1.41,2.53,20.21,20.21,0,0,1,.14,3.39l.81-.05.33,0C348.05,21.17,348.25,19.41,348,17.82Z"/><path class="cls-1" d="M344.57,14.59c-.35-.71-1.21-.77-1.92-.77s-1.6.11-2.4.12h-3.42c-1.33,0-2.65-.09-4-.08a12.27,12.27,0,0,0-2,.13,3.38,3.38,0,0,0-.71.19l-.19.1s0,.07,0,0l0,.06a.54.54,0,0,1-.1.16.56.56,0,0,1,0,.12c.07-.16,0,.08,0,.13s0,.2,0,.3c0,.25,0,.49,0,.72a5.2,5.2,0,0,0,0,.88v0a.43.43,0,0,1,.28.24,2.18,2.18,0,0,0,1.69.93,12.46,12.46,0,0,0,2.44.15c1.14,0,2.26,0,3.4,0a40.54,40.54,0,0,0,4.41-.16,9.34,9.34,0,0,0,1.9-.34,2.53,2.53,0,0,0,.55-.23c.1-.07.06,0,.14-.14,0,.05,0,0,0,0a.52.52,0,0,1,.27-.36A4.43,4.43,0,0,0,344.57,14.59Z"/><path class="cls-1" d="M328.68,14.77a3.78,3.78,0,0,0-2.86,2,1.92,1.92,0,0,0-.09.19c0,.13-.07.26-.1.4-.09.39-.17.79-.24,1.19-.16,1-.3,2-.37,2.95a9.93,9.93,0,0,0,0,1.09,2.64,2.64,0,0,0,0,.29.48.48,0,0,1,.16.35h2.07c0-1.34-.19-2.68-.1-4,.06-1.05.18-3.07,1.52-3.29A6.92,6.92,0,0,1,328.68,14.77Z"/><path class="cls-1" d="M323,33.91c-1.53,0-3.06.09-4.59.12a5,5,0,0,1,.68,1,12.06,12.06,0,0,0,3.94-.23C323,34.47,323,34.19,323,33.91Z"/><path class="cls-1" d="M353.56,35.31a.49.49,0,0,1-.16.3.43.43,0,0,0,0,0,3.4,3.4,0,0,0-.08.46c0,.45-.06.9-.07,1.36,0,1.12,0,2.25,0,3.37a72.5,72.5,0,0,1,0,8.34h.51c0-.13,0-.26,0-.37,0-.69.12-1.38.21-2.07.19-1.37.46-2.74.57-4.11v0h0c0-.07,0-.14,0-.21s0-.4,0-.61l.09-1.28a27.85,27.85,0,0,1,.38-2.89,14.4,14.4,0,0,1,.62-2.31Z"/><path class="cls-1" d="M352.21,40.27c0-1.17,0-2.36,0-3.53a5,5,0,0,1,.16-1.43h-.6a.57.57,0,0,1,0,.14,2.09,2.09,0,0,1-1.84,1.3c-.56,0-3.36,0-3.28-1a.44.44,0,0,1-.1-.3v0a4.59,4.59,0,0,1-1.66.09.56.56,0,0,1-.22.4h0c0,.2,0,.41,0,.6,0,.4,0,.79.06,1.19,0,1.38.08,2.76.19,4.15.19,2.32.37,4.66.37,7a.55.55,0,0,1-.13.36l6.74,0a.53.53,0,0,1,.31-.23,56.81,56.81,0,0,0,.06-5.69C352.25,42.27,352.23,41.27,352.21,40.27Z"/><path class="cls-1" d="M352,33.34h-.06c0,.31,0,.63,0,.94h4.19A4.88,4.88,0,0,1,357,33.2C355.32,33.23,353.66,33.33,352,33.34Z"/><path class="cls-1" d="M329,45c0-1.34,0-2.67-.08-4a34.61,34.61,0,0,0-.27-3.94c-.08-.46-.29-1.2,0-1.63h-.4a2.1,2.1,0,0,1-1.78,1.16c-.52,0-2.92,0-3.25-.82l-.09,0c0,4.38.79,8.72.83,13.1,1.73,0,3.45,0,5.16,0C329.05,47.65,329,46.33,329,45Z"/><path class="cls-1" d="M344.25,48.9c0-2.76-.29-5.51-.46-8.26-.09-1.29-.1-2.57-.15-3.86a4.43,4.43,0,0,1,0-1.31l0-.11h0c-1.51-.11-3,.06-4.56.08-3.17,0-6.34,0-9.51,0a.58.58,0,0,1-.14.57h0a2.91,2.91,0,0,0,0,.31c0,.19.07.37.1.56a13.41,13.41,0,0,1,.12,1.41c.1,1.22.18,2.44.2,3.67,0,2.27.13,4.53.14,6.79V49l7.93.12c2.1,0,4.2.06,6.3.07A.5.5,0,0,1,344.25,48.9ZM322,36a21.37,21.37,0,0,1-2.53,0,22.14,22.14,0,0,1,.71,3.9c.22,1.62.5,3.24.84,4.83.18.85.36,1.69.59,2.52a12.66,12.66,0,0,1,.4,1.64h.83C322.81,44.59,322.08,40.32,322,36Z"/><path class="cls-1" d="M327.34,30.48a2.13,2.13,0,0,0-.55-1.42c.06.05-.19,0-.25,0a2.2,2.2,0,0,0-.36,0,6.91,6.91,0,0,0-.91,0c-.34,0-1.08.07-1.28.43a.51.51,0,0,1-.23.21c0,.53,0,1.05.06,1.58h3.32a.66.66,0,0,1,.25,0C327.38,31,327.36,30.74,327.34,30.48Z"/><path class="cls-1" d="M358.07,33.21a5.09,5.09,0,0,1-.14-.56.52.52,0,0,0-.43-.46c.14-2.9.87-7.18-2.06-9a5.44,5.44,0,0,0-2.84-.6c-1,0-2,0-3,.07a8.35,8.35,0,0,1-.35-2.43,27.35,27.35,0,0,0-.26-3,4.81,4.81,0,0,0-1.1-2.5,3.27,3.27,0,0,0-2.54-.84,2.52,2.52,0,0,0-1.77-1,12.7,12.7,0,0,0-2.89,0c-1.19.08-2.39,0-3.59,0-1.51,0-3-.09-4.54-.07a11.57,11.57,0,0,0-2.27.22,1.89,1.89,0,0,0-1.24.7,4.64,4.64,0,0,0-3.81,2,5.94,5.94,0,0,0-.86,2.6,33.24,33.24,0,0,0-.4,3.44,5,5,0,0,0,0,1.43c-.69,0-1.37-.05-2.06-.09-2-.15-4.55-.15-5.24,2.15a8.12,8.12,0,0,0,0,3,25,25,0,0,1-.2,3.46,5.07,5.07,0,0,0,.11,1.4.55.55,0,0,0,.14.25.6.6,0,0,0,.15.51.52.52,0,0,0,.26.38,4.19,4.19,0,0,1,1.55,2.64,26.37,26.37,0,0,1,.56,3.43c.22,1.52.5,3.06.82,4.57.17.81.33,1.61.54,2.41a8.77,8.77,0,0,1,.46,2.15.48.48,0,0,0,.64.44.6.6,0,0,0,.2,0c5.41,0,10.82.12,16.22.2,4.82.08,9.64.09,14.47.09a.33.33,0,0,0,.14,0h1.65a.45.45,0,0,0,.45-.57.49.49,0,0,0-.06-.39,1.09,1.09,0,0,1,0-.18c0-.22,0-.42,0-.64,0-.66.15-1.33.24-2,.17-1.22.4-2.44.51-3.67.13-1.55.18-3.08.45-4.62s.61-3.4,1.87-4.36a.48.48,0,0,0,.21-.37A.76.76,0,0,0,358.07,33.21ZM347.3,15.62a4.38,4.38,0,0,1,.74,2.2c.21,1.59,0,3.34.49,4.89l-.34,0-.8.05a20.21,20.21,0,0,0-.14-3.39,3.28,3.28,0,0,0-1.41-2.53,9.91,9.91,0,0,0-.1-2A2,2,0,0,1,347.3,15.62Zm-17.6-.56c0-.1,0-.19,0-.3s.08-.29,0-.13a.56.56,0,0,0,0-.12.37.37,0,0,0,.1-.16l0-.06s.06,0,0,0l.19-.1a3.38,3.38,0,0,1,.71-.19,13.57,13.57,0,0,1,2-.13c1.33,0,2.65.08,4,.08h3.42c.81,0,1.61-.12,2.4-.12s1.57.06,1.92.77a4.72,4.72,0,0,1,.24,2.18.48.48,0,0,0-.27.36s0,0,0,0c-.09.12-.05.06-.14.14a2,2,0,0,1-.56.23,9.13,9.13,0,0,1-1.89.34,40.54,40.54,0,0,1-4.41.16c-1.14,0-2.26,0-3.4,0a12.61,12.61,0,0,1-2.45-.15,2.2,2.2,0,0,1-1.68-.93.48.48,0,0,0-.28-.24v0a6.49,6.49,0,0,1-.05-.88A6,6,0,0,1,329.7,15.06Zm-.61,2.68a.53.53,0,0,0,.3.13c1,1.17,3,1.17,4.39,1.18s2.61,0,3.92,0a34.84,34.84,0,0,0,4.8-.22c.82-.1,2.25-.25,2.83-1,.74.29.87,1.51.94,2.19a21,21,0,0,1,.08,2.86c-2.38.14-4.76.23-7.16.25-3,0-6.05,0-9.07,0l-1.88,0c0-1.13-.14-2.27-.13-3.4a9.24,9.24,0,0,1,.22-2,2.09,2.09,0,0,1,.25-.64.54.54,0,0,1,.11-.13A1.25,1.25,0,0,0,329.09,17.74ZM325,21.48c.07-1,.21-2,.37-2.95.07-.39.15-.8.24-1.19,0-.13.06-.27.1-.4a.51.51,0,0,1,.09-.19,3.83,3.83,0,0,1,2.86-2,7,7,0,0,0,0,1.12c-1.33.22-1.45,2.24-1.52,3.29-.08,1.35.07,2.68.1,4-.69,0-1.38,0-2.07,0a.44.44,0,0,0-.16-.35,2.83,2.83,0,0,1,0-.29C325,22.21,325,21.84,325,21.48ZM317.55,33a.55.55,0,0,0,0-.22,5.74,5.74,0,0,1,0-2,15.93,15.93,0,0,0,.14-1.82c0-1-.22-2-.13-3,.24-2.44,3.28-2,5-1.84,2.83.18,5.66,0,8.48,0,3,0,6.06,0,9.08-.05,2.7-.05,5.39-.17,8.08-.34,1.36-.08,2.71-.15,4.07-.15a5,5,0,0,1,2.64.51c1.21.7,1.5,2.31,1.61,3.59a37.07,37.07,0,0,1-.11,4.47c-1.51,0-3,.12-4.53.12a12.94,12.94,0,0,0-.08-1.87,2.85,2.85,0,0,0-1-2.07,3.84,3.84,0,0,0-2.3-.27,2.51,2.51,0,0,0-2,1,.49.49,0,0,0-.06.22.53.53,0,0,0-.26.46c0,.9.06,1.79.13,2.68-2.71,0-5.41.23-8.12.27h-8.84a1.75,1.75,0,0,1-.73,0h0a.49.49,0,0,0-.29-.06,16.31,16.31,0,0,0-.06-2.32,2.87,2.87,0,0,0-1-2.08,3.89,3.89,0,0,0-2.29-.26,2.5,2.5,0,0,0-2,1,.39.39,0,0,0-.06.22.53.53,0,0,0-.27.46c0,1.09.1,2.17.17,3.24C321.12,32.89,319.34,33,317.55,33Zm32.76-3.82a2.1,2.1,0,0,1,.55,1.42c0,.26,0,.51.05.76a.66.66,0,0,0-.25-.05h-3.32c0-.53,0-1,0-1.58a.49.49,0,0,0,.22-.21c.2-.36.94-.4,1.28-.42a5.53,5.53,0,0,1,.91,0l.36,0C350.13,29.16,350.37,29.25,350.31,29.2Zm.43,3.15a.48.48,0,0,0,.18,0c0,.1,0,.2,0,.3,0,.58,0,1.17,0,1.75a1.19,1.19,0,0,1-.79,1.3,3.89,3.89,0,0,1-1.36,0c-.28,0-.55-.08-.84-.14a1.42,1.42,0,0,1-.22-.07h0a.91.91,0,0,0-.11-.16c0-1-.09-2-.15-2.94Zm-22.33,1.32a3.1,3.1,0,0,0,1,.09c.86,0,1.72,0,2.58,0h5.66c1.84,0,3.73,0,5.56-.15a29.88,29.88,0,0,1,3.28-.13c0,.27,0,.54.05.8a2.66,2.66,0,0,1-1.25.16c-.58,0-1.16-.06-1.73-.11a13.23,13.23,0,0,0-2,0c-.95,0-1.89,0-2.84.06-3.43,0-6.86,0-10.3,0A4.67,4.67,0,0,0,328.41,33.67Zm-1.26,1.45a1.22,1.22,0,0,1-.57.41,3.89,3.89,0,0,1-1.36,0,8.17,8.17,0,0,1-.84-.14,1.42,1.42,0,0,1-.22-.07h0a.91.91,0,0,0-.11-.16c0-1-.09-2-.15-2.94h3.32a.48.48,0,0,0,.18,0c0,.1,0,.2,0,.3,0,.58,0,1.17,0,1.75a1.77,1.77,0,0,1,0,.23A.5.5,0,0,0,327.15,35.12Zm-.36-6.06a2.13,2.13,0,0,1,.55,1.42c0,.26,0,.51.05.76a.66.66,0,0,0-.25,0h-3.32c0-.53-.06-1.05-.06-1.58a.51.51,0,0,0,.23-.21c.2-.36.94-.4,1.28-.43a6.91,6.91,0,0,1,.91,0,2.2,2.2,0,0,1,.36,0C326.6,29,326.85,29.11,326.79,29.06ZM322,48.91a12.64,12.64,0,0,0-.39-1.64c-.24-.83-.42-1.68-.6-2.52q-.51-2.39-.84-4.83a21.41,21.41,0,0,0-.71-3.9A17.8,17.8,0,0,0,322,36c.05,4.31.78,8.59.83,12.91Zm-3-13.92a4.92,4.92,0,0,0-.68-1c1.53,0,3.06-.11,4.59-.12,0,.28,0,.56,0,.84A11.79,11.79,0,0,1,319.06,35Zm4.83,13.93c0-4.38-.8-8.72-.83-13.1l.09,0c.33.81,2.73.84,3.25.82a2.12,2.12,0,0,0,1.78-1.16h.4c-.24.43,0,1.17,0,1.63a34.77,34.77,0,0,1,.27,3.94c.06,1.33,0,2.66.08,4s.08,2.62.09,3.94C327.34,48.93,325.62,48.92,323.89,48.92ZM338,49.1,330.09,49v-.2c0-2.26-.11-4.52-.14-6.79,0-1.23-.1-2.45-.2-3.67,0-.47-.05-1-.12-1.41,0-.19-.06-.38-.1-.56a2.91,2.91,0,0,1,0-.31v0a.56.56,0,0,0,.14-.56c3.17,0,6.34,0,9.51,0,1.52,0,3.05-.19,4.56-.08h0l0,.11a4.42,4.42,0,0,0,0,1.31c.05,1.29.06,2.57.15,3.86.18,2.74.46,5.49.46,8.26a.57.57,0,0,0,.07.27Zm14.19-8.83c0,1,0,2,.05,3,0,1.9.1,3.8-.06,5.69a.59.59,0,0,0-.31.23l-6.74,0a.58.58,0,0,0,.13-.36c0-2.33-.19-4.67-.37-7-.11-1.39-.15-2.77-.19-4.15,0-.4,0-.79-.06-1.19,0-.19,0-.4,0-.6h0a.55.55,0,0,0,.22-.4,4.82,4.82,0,0,0,1.66-.09v0a.4.4,0,0,0,.1.3c-.08,1,2.72,1.07,3.28,1a2.1,2.1,0,0,0,1.84-1.3.57.57,0,0,0,0-.14h.59a5.36,5.36,0,0,0-.15,1.43C352.16,37.91,352.19,39.09,352.21,40.27ZM355,37.61a28.21,28.21,0,0,0-.38,2.89l-.09,1.28c0,.21,0,.4,0,.61s0,.13,0,.21h0v0c-.11,1.38-.38,2.75-.57,4.11-.09.68-.18,1.38-.21,2.07,0,.11,0,.24,0,.37h-.51a72.52,72.52,0,0,0,.05-8.34c0-1.12-.05-2.25,0-3.37,0-.45,0-.91.07-1.36a3.69,3.69,0,0,1,.08-.46.11.11,0,0,0,0,0,.45.45,0,0,0,.16-.3h2.09A16.79,16.79,0,0,0,355,37.61Zm1.11-3.33h-4.19c0-.31,0-.63,0-.94H352c1.67,0,3.33-.11,5-.13A4.61,4.61,0,0,0,356.13,34.28Z"/><path class="cls-1" d="M340.76,223.29a3,3,0,0,1-.47-.48,13.21,13.21,0,0,1-.92-1.46,8.93,8.93,0,0,0-1.51-2.43.5.5,0,0,1,0-.76s0,0,0-.06a2.7,2.7,0,0,1,1.41-.8,2.56,2.56,0,0,0,1.22-1.25,1.87,1.87,0,0,0,.21-1.65,2.13,2.13,0,0,0-.84-1,4.32,4.32,0,0,0-2.78-.64,2.72,2.72,0,0,0-1.23.75,2.35,2.35,0,0,1-1.31.56.48.48,0,0,1-.5-.34.46.46,0,0,1-.14-.32c0-.34-.3-.61-.46-.91s-.27-.59-.4-.88a4,4,0,0,0-.66-1.18.48.48,0,0,1-.24.06c-1.39,0-2.77.05-4.16.07,0,1.6-.17,3.27-1.72,4.15s-3,.48-4.53.13l-.09,0c-1.74.84-3.39,1.83-5.13,2.65,0,.06,0,.12.05.19.1.27.21.53.32.79q.46,1.08,1,2.13c.32.66.65,1.32,1,2l.25.45a4.79,4.79,0,0,1,2.3-1c1.2-.27,2.7-.59,3.82.09a3,3,0,0,1,1.31,3.61,3.47,3.47,0,0,1-1.42,1.72,4,4,0,0,1-1.86.76,5.5,5.5,0,0,0,.44.58,10.27,10.27,0,0,1,.69,1,17.9,17.9,0,0,1,1.11,2.13.47.47,0,0,1,.21.11l.12,0a7.35,7.35,0,0,0,2.86-1.2c.73-.37,1.52-.63,2.21-1.06-1-1.44-1.51-3.82,0-5a4.16,4.16,0,0,1,3.3-.52,3.42,3.42,0,0,1,1.59.79,9.59,9.59,0,0,1,1,1.15,5.11,5.11,0,0,1,1.29-.85,31.49,31.49,0,0,0,3-1.79A.87.87,0,0,0,340.76,223.29Z"/><path class="cls-1" d="M320.38,203.42a.43.43,0,0,1,0-.11A3.3,3.3,0,0,1,322.3,200a8.72,8.72,0,0,1,3.68-.63v-5.86c-1.07-.06-2.16,0-3.25-.06l-1.08,0H321a.45.45,0,0,1-.14.06,5.35,5.35,0,0,1-1,3,4.09,4.09,0,0,1-3,1.59,5.6,5.6,0,0,1-3.81-1.17c-1.06-.92-.81-2.1-.82-3.32-1.64.08-3.25.34-4.89.29.06,2.35.45,4.67.46,7a.57.57,0,0,1-.11.33.44.44,0,0,1-.46.42,3.27,3.27,0,0,0-2.65.75,1.91,1.91,0,0,0-.58,1.65c.24,1.31,1.63,1.62,2.92,1.73a.49.49,0,0,1,.79.38c0,1.07.21,2.13.27,3.21a3.81,3.81,0,0,0,.76,0c.38,0,.77-.08,1.14-.09.65,0,1.3,0,1.95,0a.53.53,0,0,1,.54.51,1.09,1.09,0,0,1,0,.19,2.36,2.36,0,0,0,.53,2.27,4.56,4.56,0,0,0,1.55.91"/><path class="cls-1" d="M345.31,192.64h0a.51.51,0,0,0-.44-.23h-4a4.29,4.29,0,0,0-.88-2.05,3.48,3.48,0,0,0-2.6-1.14,3.94,3.94,0,0,0-4,3.21c-.83-.07-1.66-.1-2.5-.12s-1.83,0-2.75,0a5.73,5.73,0,0,0-1.65.18c-1.38-.09-2.76-.07-4.14-.1a12.71,12.71,0,0,0-1.38,0,.83.83,0,0,0-.72.42.51.51,0,0,0-.38.5c0,1.86-1,3.64-3,3.77a4.48,4.48,0,0,1-3-.92c-.8-.64-.47-1.83-.48-2.76a.55.55,0,0,0-.47-.83c-2,0-4,.46-6,.29a.57.57,0,0,0-.51.86c0,2.31.41,4.6.46,6.92a5.46,5.46,0,0,0-1.39.13,3.75,3.75,0,0,0-1.42.82,3,3,0,0,0-1,2.37,2.87,2.87,0,0,0,1.38,2.19,5,5,0,0,0,2.36.66c.07,1,.25,2,.26,3a.53.53,0,0,0,.29.43,4.57,4.57,0,0,0,2.41.07,15.37,15.37,0,0,1,1.66,0,3.16,3.16,0,0,0,.67,2.47,5.17,5.17,0,0,0,2.47,1.47v-1.07a4.72,4.72,0,0,1-1.54-.91,2.39,2.39,0,0,1-.54-2.27.39.39,0,0,0,0-.19.52.52,0,0,0-.53-.51c-.65,0-1.3,0-1.95,0-.38,0-.77.06-1.14.09a3.81,3.81,0,0,1-.76,0c-.05-1.08-.27-2.14-.28-3.21a.49.49,0,0,0-.78-.38c-1.3-.11-2.68-.41-2.92-1.73a1.91,1.91,0,0,1,.57-1.65,3.3,3.3,0,0,1,2.66-.75.44.44,0,0,0,.46-.42.54.54,0,0,0,.11-.33c0-2.35-.4-4.67-.46-7,1.63,0,3.25-.22,4.88-.29,0,1.23-.23,2.4.83,3.32a5.58,5.58,0,0,0,3.8,1.17,4,4,0,0,0,3-1.59,5.32,5.32,0,0,0,1-3l.14-.06h.68l1.08,0c1.09,0,2.19,0,3.27.06v5.85a8.65,8.65,0,0,0-3.67.63,3.28,3.28,0,0,0-1.94,3.33s0,.07,0,.11h1.06a1.17,1.17,0,0,1-.06-.2,2.28,2.28,0,0,1,1.55-2.4,8.75,8.75,0,0,1,3.41-.45h.13a.54.54,0,0,0,.53-.54v-6.39h.05c.3,0,.61-.06.91-.07.81,0,1.62,0,2.43,0s1.55,0,2.32.09l.82.07.19,0a.55.55,0,0,0,.84-.58.46.46,0,0,0-.25-.31,2.92,2.92,0,0,1,3-2.38c1.62,0,2.4,1.27,2.57,2.72a.54.54,0,0,0,.76.41.53.53,0,0,0,.26.07h3.79a.47.47,0,0,0,.13.11l0,0a.5.5,0,0,1,.08.19,3.29,3.29,0,0,1,.14.68,14.81,14.81,0,0,1,.05,1.88c0,.94-.12,1.88-.15,2.82-1.28,0-2.6-.24-3.74.51a3,3,0,0,0-1.33,2.38,2.84,2.84,0,0,0,.29,1.38h1.28a1.73,1.73,0,0,1-.55-1.36,2,2,0,0,1,1-1.6c1-.65,2.42-.28,3.52-.26a.41.41,0,0,0,.43-.29.53.53,0,0,0,.14-.36c0-1.2.15-2.4.17-3.6C346.14,195,346.28,193.2,345.31,192.64Z"/><path class="cls-1" d="M345.22,205.19a.51.51,0,0,0-.33-.78c-1.08-.23-2.65-.25-3.46-1h-1.28a2.93,2.93,0,0,0,.78,1,6.59,6.59,0,0,0,3.25,1,30.85,30.85,0,0,1,.13,3.59.53.53,0,0,0-.33.17h-.18c-.34,0-.67.11-1,.14a10.9,10.9,0,0,1-1.61.07,8.93,8.93,0,0,0-2.37.12,3.5,3.5,0,0,0-3.28-3.22,4.7,4.7,0,0,0-2.81.67,2.59,2.59,0,0,0-1,1.28,3.29,3.29,0,0,0-.13,1.32c-1.6,0-3.2.06-4.81.08.09-1.37-.13-2.74-.14-4.11a.6.6,0,0,0,0-.2.52.52,0,0,0-.52-.38,9.92,9.92,0,0,1-2.77-.23c-.69-.16-1.61-.5-1.87-1.22h-1.06c.4,2.15,3.3,2.51,5.23,2.5a30.34,30.34,0,0,1,.13,3.56c-1,0-2.07,0-3.1,0-.56,0-1.12-.08-1.69-.07h-.64a.51.51,0,0,0-.86.1.46.46,0,0,0-.36.27,2.38,2.38,0,0,0-.18,1.24,1.9,1.9,0,0,1-.36,1.32,3.18,3.18,0,0,1-2.61,1.1,4.4,4.4,0,0,1-1.49-.25v1.07a6.17,6.17,0,0,0,1.11.2,4.5,4.5,0,0,0,3.42-1.06,3.12,3.12,0,0,0,.89-1.42c.13-.49-.06-1.11.08-1.59a6.44,6.44,0,0,0,1.5,0c1.43,0,2.86.08,4.29.08a.54.54,0,0,0,.31.09h.76a.71.71,0,0,0,.16.28c0,1.19-.14,2.28-1.27,3s-2.67.22-3.84-.05a.44.44,0,0,0-.38.06.55.55,0,0,0-.17,0c-1.93.93-3.75,2.05-5.72,2.91a.54.54,0,0,0-.09.94,8.14,8.14,0,0,0,.46,1.17c.34.81.73,1.61,1.12,2.4s.72,1.44,1.12,2.15a3.42,3.42,0,0,0,.42.7h0c0,.66,1,.58,1-.08,0-.29.42-.5.64-.61a5.64,5.64,0,0,1,1.46-.46,5.16,5.16,0,0,1,2.78-.1,1.94,1.94,0,0,1,1.12,2.3,2.34,2.34,0,0,1-.88,1.24,2.63,2.63,0,0,1-1.88.72.76.76,0,0,0-.31,0c-.31-.06-.66.12-.59.52a6.12,6.12,0,0,0,1.21,2.13,14.23,14.23,0,0,1,1.45,2.69.51.51,0,0,0,.38.32l.1.12a1.13,1.13,0,0,0,.18.12.75.75,0,0,0,.33.07.44.44,0,0,0,.26-.1h0a7.74,7.74,0,0,0,3-1.19,14.11,14.11,0,0,0,2.94-1.52.5.5,0,0,0,.19-.5.54.54,0,0,0-.14-.41c-.79-.89-1.48-3-.33-3.85a3.21,3.21,0,0,1,2.45-.3c1,.2,1.48,1,2.08,1.73a.55.55,0,0,0,.68.14.52.52,0,0,0,.78-.27s.07,0,.15-.11.33-.21.5-.31l.89-.51c.56-.34,1.15-.65,1.71-1s1.24-.61,1.28-1.17a1.5,1.5,0,0,0-.64-1.25,5.58,5.58,0,0,1-1.16-1.52,17.67,17.67,0,0,0-1.46-2.53,12.39,12.39,0,0,1,1.26-.52,4.14,4.14,0,0,0,1.41-1.79,2.81,2.81,0,0,0-.77-3.42,5.13,5.13,0,0,0-3.27-1.1,2.66,2.66,0,0,0-1.6.45,10.42,10.42,0,0,1-1.06.79,4.62,4.62,0,0,0-.48-.9c-.18-.31-.31-.65-.46-1a3.11,3.11,0,0,0-1.32-1.69,3.16,3.16,0,0,1,0-.75,1.55,1.55,0,0,1,.76-1,3.73,3.73,0,0,1,2.08-.44,2.47,2.47,0,0,1,2.31,2.62v.19a.43.43,0,0,0,.45.46.56.56,0,0,0,.55,0,3.25,3.25,0,0,1,1.48-.2c.58,0,1.15,0,1.73,0,.34,0,.69,0,1-.07a4.35,4.35,0,0,1,1-.09.74.74,0,0,0,.81-.32.45.45,0,0,0,.44-.4A21.65,21.65,0,0,0,345.22,205.19Zm-12.14,6.42c.13.3.26.59.4.88a2.65,2.65,0,0,1,.46.92.43.43,0,0,0,.14.31.47.47,0,0,0,.5.34,2.38,2.38,0,0,0,1.31-.56,2.72,2.72,0,0,1,1.23-.75,4.27,4.27,0,0,1,2.78.65,2.16,2.16,0,0,1,.84,1,1.86,1.86,0,0,1-.21,1.65,2.6,2.6,0,0,1-1.22,1.25,2.7,2.7,0,0,0-1.41.8l0,.06a.5.5,0,0,0,0,.76,8.93,8.93,0,0,1,1.51,2.43,12.34,12.34,0,0,0,.92,1.46,3,3,0,0,0,.47.48,1.66,1.66,0,0,1,.37.34,33.27,33.27,0,0,1-3,1.79,4.65,4.65,0,0,0-1.29.84,10.52,10.52,0,0,0-1-1.14,3.34,3.34,0,0,0-1.59-.8,4.14,4.14,0,0,0-3.31.52c-1.54,1.17-1,3.54,0,5-.69.43-1.49.7-2.21,1.06a7.33,7.33,0,0,1-2.87,1.2l-.11,0a.51.51,0,0,0-.21-.1,18.84,18.84,0,0,0-1.11-2.14c-.22-.36-.45-.69-.69-1s-.3-.38-.44-.58a4.4,4.4,0,0,0,1.86-.76,3.64,3.64,0,0,0,1.42-1.73,3,3,0,0,0-1.31-3.61c-1.11-.67-2.62-.35-3.82-.09a5,5,0,0,0-2.3,1l-.25-.45c-.35-.64-.69-1.3-1-2s-.68-1.4-1-2.12l-.32-.8a1.33,1.33,0,0,1-.05-.19c1.74-.81,3.39-1.81,5.12-2.64l.1-.06c1.51.36,3.1.68,4.53-.13s1.71-2.55,1.72-4.14c1.39,0,2.77-.07,4.15-.08a.62.62,0,0,0,.25-.05A4.69,4.69,0,0,1,333.08,211.61Z"/></g></g></svg>